<?xml version="1.0" encoding="UTF-8" standalone="no"?>
<!-- Generator: Adobe Illustrator 16.2.1, SVG Export Plug-In . SVG Version: 6.00 Build 0)  -->

<svg
   xmlns:dc="http://purl.org/dc/elements/1.1/"
   xmlns:cc="http://creativecommons.org/ns#"
   xmlns:rdf="http://www.w3.org/1999/02/22-rdf-syntax-ns#"
   xmlns:svg="http://www.w3.org/2000/svg"
   xmlns="http://www.w3.org/2000/svg"
   xmlns:sodipodi="http://sodipodi.sourceforge.net/DTD/sodipodi-0.dtd"
   xmlns:inkscape="http://www.inkscape.org/namespaces/inkscape"
   version="1.1"
   id="Layer_1"
   x="0px"
   y="0px"
   width="101.38441mm"
   height="101.38437mm"
   viewBox="0 0 383.18518 383.18501"
   enable-background="new 0 0 792 612"
   xml:space="preserve"
   sodipodi:docname="hold-my-beer-coaster.svg"
   inkscape:label="outline"
   inkscape:version="0.92.1 r15371"><sodipodi:namedview
     pagecolor="#ffffff"
     bordercolor="#666666"
     borderopacity="1"
     objecttolerance="10"
     gridtolerance="10"
     guidetolerance="10"
     inkscape:pageopacity="0"
     inkscape:pageshadow="2"
     inkscape:window-width="1920"
     inkscape:window-height="1050"
     id="namedview3872"
     showgrid="false"
     inkscape:zoom="1.4262504"
     inkscape:cx="97.996704"
     inkscape:cy="141.54289"
     inkscape:window-x="0"
     inkscape:window-y="30"
     inkscape:window-maximized="0"
     inkscape:current-layer="layer2"
     units="mm"
     fit-margin-top="0"
     fit-margin-left="0"
     fit-margin-right="0"
     fit-margin-bottom="0" /><metadata
     id="metadata3876"><rdf:RDF><cc:Work
         rdf:about=""><dc:format>image/svg+xml</dc:format><dc:type
           rdf:resource="http://purl.org/dc/dcmitype/StillImage" /><dc:title /></cc:Work></rdf:RDF></metadata><defs
     id="defs3874" /><path
     style="clip-rule:evenodd;fill:none;fill-rule:evenodd;stroke:#ff0000;stroke-width:1;stroke-miterlimit:10;stroke-dasharray:none;stroke-opacity:1"
     inkscape:connector-curvature="0"
     id="path3869"
     d="m 35.214773,382.31603 c -0.70367,-9.0493 -3.71784,-17.19785 -10.3084,-23.73739 -6.57243,-6.51955 -14.57212,-9.77936 -23.61102,-10.12622 C 0.35410304,344.65327 0.20357304,39.995144 1.084983,35.258924 c 20.4971,-2.32271 32.00065,-13.84 34.34198,-34.75891956 103.992597,0 207.928967,-1e-5 312.365887,0 0.56403,9.26177996 3.62535,17.52655956 10.27394,24.18232956 6.56516,6.57406 14.67732,9.64134 23.7017,10.26605 0.95576,3.36512 1.29671,306.120036 0.37541,313.140836 -19.87141,2.48614 -31.53637,13.49495 -33.9684,33.82726 -0.0559,0.053 -0.15931,0.15648 -0.26843,0.24878 -0.10884,0.0926 -0.21583,0.23789 -0.33911,0.25609 -0.71455,0.10896 -1.43273,0.26151 -2.1491,0.26151 -102.71583,0.005 -205.42622,0.002 -308.140237,-0.0163 -0.56221,-0.005 -1.12805,-0.18887 -2.06386,-0.3505 z"
     stroke-miterlimit="10" /><g
     inkscape:label="etch"
     id="layer1"
     inkscape:groupmode="layer"
     transform="translate(-200.37121,-128.4698)"><path
       id="path4711"
       d="m 573.68263,320.01305 c -1.37033,0.95606 -2.59749,1.72151 -3.72472,2.61379 -10.61334,8.40599 -15.3945,19.43127 -14.54496,32.90417 0.3131,4.96375 2.16406,9.53294 3.96231,14.10763 4.48225,11.39623 8.3486,23.00427 11.6501,34.79739 0.89442,3.19656 1.72194,6.42458 2.32216,9.68729 1.13827,6.17258 0.52548,12.29081 -1.40966,18.21457 -3.79708,11.61274 -11.29611,20.0219 -22.41132,25.11323 -5.50175,2.51926 -11.32836,3.647 -17.37371,3.56666 -1.03205,-0.0127 -1.31839,0.25673 -1.46,1.31674 -1.93907,14.42739 -9.16118,25.42037 -21.64828,32.88528 -4.69858,2.80831 -9.79757,4.3605 -15.28595,4.96216 -9.04162,0.99387 -17.89681,0.39849 -26.49636,-2.55629 -4.21008,-1.44746 -8.23688,-3.42572 -12.38247,-5.06691 -5.52848,-2.18851 -11.27175,-3.47927 -17.19985,-4.01792 -13.34373,-1.21358 -25.82062,1.6089 -37.4959,8.0461 -2.86336,1.57818 -5.50412,3.56037 -8.3478,5.42208 -1.7251,-1.17499 -3.55561,-2.48071 -5.44434,-3.69427 -7.25909,-4.66371 -15.16874,-7.68147 -23.65892,-9.13838 -6.688,-1.14426 -13.38703,-1.21828 -20.11987,-0.20475 -4.99278,0.75208 -9.83457,1.98138 -14.49224,3.90215 -3.14419,1.29546 -6.18062,2.8642 -9.35785,4.0699 -4.33987,1.64908 -8.86306,2.613 -13.48218,3.20679 -4.81975,0.61979 -9.63005,0.58908 -14.44663,0.18115 -7.58161,-0.64105 -14.38054,-3.38398 -20.429,-7.95714 -8.4123,-6.36158 -13.91562,-14.67858 -16.40928,-24.95021 -0.4114,-1.69316 -0.71662,-3.42728 -0.89991,-5.16218 -0.10472,-0.99228 -0.40118,-1.25217 -1.40099,-1.24745 -9.46404,0.0551 -18.08639,-2.6059 -25.60037,-8.42093 -8.71832,-6.7459 -13.94868,-15.6 -15.67061,-26.54024 -1.01871,-6.47577 -0.39963,-12.79248 1.57406,-18.98319 3.45648,-10.83941 6.9515,-21.66624 10.52992,-32.46709 1.43484,-4.3282 3.53515,-8.46742 4.63253,-12.86653 3.60988,-14.46907 -0.12981,-26.93868 -11.03733,-37.14178 -1.6653,-1.55853 -3.66339,-2.76027 -5.50334,-4.13292 -0.12894,-0.0961 -0.21711,-0.24568 -0.42792,-0.49142 0.71899,-0.51031 1.39077,-1.00015 2.0728,-1.47266 8.77258,-6.07728 14.07375,-14.41162 15.80199,-24.91637 1.17758,-7.15539 0.0331,-14.05487 -2.68794,-20.79683 -5.42779,-13.44848 -9.86838,-27.23481 -13.75201,-41.21092 -3.16309,-11.38599 -1.91232,-22.18447 4.01342,-32.34741 5.4113,-9.28095 13.40117,-15.42437 23.69119,-18.53666 4.06851,-1.23088 8.2369,-1.77979 12.48082,-1.70654 0.85113,0.015 1.15711,-0.17407 1.27199,-1.086 1.77151,-13.99187 8.63177,-24.7502 20.47699,-32.40097 6.64,-4.28881 13.97776,-5.87252 21.72538,-6.11037 11.26544,-0.34649 21.84021,2.19403 31.89111,7.29719 4.53258,2.30034 9.50259,3.50051 14.52604,4.2006 3.53437,0.493 7.12381,0.77099 10.69199,0.80092 9.51362,0.0788 18.60795,-2.00031 27.1186,-6.23322 4.29187,-2.13496 8.33048,-4.77867 12.67588,-7.30423 1.50641,1.02612 3.33612,2.33105 5.22407,3.55013 7.20952,4.65661 15.08693,7.61136 23.51576,9.12027 5.2343,0.93713 10.53466,1.23955 15.81457,0.7891 8.28646,-0.70878 16.1796,-2.88941 23.67154,-6.64826 5.58121,-2.79963 11.61944,-4.28331 17.82284,-5.08896 4.81584,-0.62608 9.63476,-0.6938 14.44821,-0.20789 14.44032,1.45611 25.01353,8.94858 32.41186,21.18509 3.2512,5.37954 4.17626,8.63436 5.79281,18.01925 1.85568,0.10557 3.72393,0.17088 5.58434,0.32368 7.47544,0.61583 14.27356,3.13905 20.33226,7.5342 7.61071,5.51972 12.77894,12.83028 15.41024,21.87258 2.31902,7.97208 1.99648,15.88587 -0.2714,23.87605 -4.10074,14.45178 -9.15645,28.55942 -14.30815,42.66075 -4.97628,13.62334 -2.38824,26.20633 7.04356,37.30722 2.319,2.7311 5.06043,4.94799 8.07168,6.85377 0.27057,0.17567 0.51447,0.3985 0.92824,0.71901 z"
       stroke-miterlimit="10"
       style="clip-rule:evenodd;fill:none;fill-rule:evenodd;stroke:#0000ff;stroke-width:1;stroke-miterlimit:10;stroke-dasharray:none;stroke-opacity:1"
       inkscape:connector-curvature="0" /></g><g
     inkscape:groupmode="layer"
     id="layer2"
     inkscape:label="text"
     transform="translate(-200.37121,-128.4698)"><g
       id="g44"><path
         id="path6064"
         style="fill:none;stroke:#000000;stroke-width:1;stroke-miterlimit:10;stroke-dasharray:none;stroke-opacity:1"
         d="m 301.12375,193.56202 -55.25128,15.47036"
         inkscape:connector-curvature="0" /><path
         id="path6066"
         style="fill:none;stroke:#000000;stroke-width:1;stroke-miterlimit:10;stroke-dasharray:none;stroke-opacity:1"
         d="m 295.59863,212.34746 -15.47036,15.47036 m 8.84021,-8.8402 4.4201,-2.21005 h 4.4201 l 3.31508,1.10502 3.31508,3.31508"
         inkscape:connector-curvature="0" /><path
         id="path6068"
         style="fill:none;stroke:#000000;stroke-width:1;stroke-miterlimit:10;stroke-dasharray:none;stroke-opacity:1"
         d="m 339.79965,232.23792 -55.25128,15.47036"
         inkscape:connector-curvature="0" /><path
         id="path6070"
         style="fill:none;stroke:#000000;stroke-width:1;stroke-miterlimit:10;stroke-dasharray:none;stroke-opacity:1"
         d="m 342.00971,243.28818 -23.20554,23.20554 m 11.05026,-11.05025 h 6.63015 l 3.31508,1.10502 3.31508,3.31508 1.10502,3.31508 -2.21005,4.4201 -11.05026,11.05026"
         inkscape:connector-curvature="0" /><path
         id="path6072"
         style="fill:none;stroke:#000000;stroke-width:1;stroke-miterlimit:10;stroke-dasharray:none;stroke-opacity:1"
         d="m 359.69011,276.43895 -3.31507,-1.10503 h -4.42011 l -4.4201,2.21005 -2.21005,2.21005 -2.21005,4.42011 v 4.4201 l 1.10502,3.31508 3.31508,3.31507 3.31508,1.10503 h 4.4201 l 4.4201,-2.21005 2.21005,-2.21005 2.21006,-4.42011 v -4.4201 l -1.10503,-3.31508 -3.31508,-3.31507"
         inkscape:connector-curvature="0" /><path
         id="path6074"
         style="fill:none;stroke:#000000;stroke-width:1;stroke-miterlimit:10;stroke-dasharray:none;stroke-opacity:1"
         d="m 384.00068,285.27915 -23.20554,23.20554"
         inkscape:connector-curvature="0" /><path
         id="path6076"
         style="fill:none;stroke:#000000;stroke-width:1;stroke-miterlimit:10;stroke-dasharray:none;stroke-opacity:1"
         d="m 404.99617,306.27465 -23.20554,23.20554 m 12.15529,-12.15529 v -4.4201 l -1.10503,-3.31508 -3.31508,-3.31507 -3.31507,-1.10503 h -4.42011 l -4.4201,2.21005 -2.21005,2.21005 -2.21005,4.42011 v 4.4201 l 1.10502,3.31508 3.31508,3.31507 3.31508,1.10503 h 4.4201"
         inkscape:connector-curvature="0" /><path
         id="path6078"
         style="fill:none;stroke:#000000;stroke-width:1;stroke-miterlimit:10;stroke-dasharray:none;stroke-opacity:1"
         d="m 406.1012,322.85003 -15.47036,15.47036 m 11.05025,-11.05026 h 6.63016 l 3.31507,1.10503 3.31508,3.31507 1.10503,3.31508 -2.21005,4.4201 -11.05026,11.05026 m 11.05026,-11.05026 h 6.63015 l 3.31508,1.10503 3.31507,3.31508 1.10503,3.31507 -2.21005,4.42011 -11.05026,11.05025"
         inkscape:connector-curvature="0" /><path
         id="path6080"
         style="fill:none;stroke:#000000;stroke-width:1;stroke-miterlimit:10;stroke-dasharray:none;stroke-opacity:1"
         d="m 437.04191,353.79075 -8.8402,22.10051 m 22.10051,-8.8402 -22.10051,8.8402 -6.63016,2.21005 h -4.4201 l -3.31508,-1.10502 -1.10502,-1.10503"
         inkscape:connector-curvature="0" /><path
         id="path6082"
         style="fill:none;stroke:#000000;stroke-width:1;stroke-miterlimit:10;stroke-dasharray:none;stroke-opacity:1"
         d="m 464.66755,365.94603 -23.20554,23.20554 m 12.15529,-12.15529 h 4.4201 l 3.31508,1.10503 3.31507,3.31508 1.10503,3.31507 v 4.42011 l -2.21005,4.4201 -2.21005,2.21005 -4.42011,2.21005 h -4.4201 l -3.31508,-1.10502 -3.31507,-3.31508 -1.10503,-3.31508 v -4.4201"
         inkscape:connector-curvature="0" /><path
         id="path6084"
         style="fill:none;stroke:#000000;stroke-width:1;stroke-miterlimit:10;stroke-dasharray:none;stroke-opacity:1"
         d="m 470.19269,400.20183 13.26031,13.26031 2.21005,-2.21005 1.10503,-3.31508 v -2.21005 l -1.10503,-3.31508 -3.31508,-3.31507 -3.31507,-1.10503 h -4.42011 l -4.4201,2.21005 -2.21005,2.21005 -2.21005,4.42011 v 4.4201 l 1.10502,3.31508 3.31508,3.31507 3.31508,1.10503 h 4.4201"
         inkscape:connector-curvature="0" /><path
         id="path6086"
         style="fill:none;stroke:#000000;stroke-width:1;stroke-miterlimit:10;stroke-dasharray:none;stroke-opacity:1"
         d="m 490.08315,420.09229 13.26031,13.26031 2.21005,-2.21005 1.10503,-3.31508 v -2.21005 l -1.10503,-3.31508 -3.31508,-3.31507 -3.31507,-1.10503 h -4.42011 l -4.4201,2.21005 -2.21005,2.21005 -2.21005,4.42011 v 4.4201 l 1.10502,3.31508 3.31508,3.31507 3.31508,1.10503 h 4.4201"
         inkscape:connector-curvature="0" /><path
         id="path6088"
         style="fill:none;stroke:#000000;stroke-width:1;stroke-miterlimit:10;stroke-dasharray:none;stroke-opacity:1"
         d="m 517.70879,434.45762 -15.47036,15.47036 m 8.84021,-8.8402 4.4201,-2.21005 h 4.4201 l 3.31508,1.10502 3.31508,3.31508"
         inkscape:connector-curvature="0" /></g></g></svg>