<?xml version="1.0" encoding="UTF-8" standalone="no"?>
<!-- Created with Inkscape (http://www.inkscape.org/) -->

<svg
   xmlns:dc="http://purl.org/dc/elements/1.1/"
   xmlns:cc="http://creativecommons.org/ns#"
   xmlns:rdf="http://www.w3.org/1999/02/22-rdf-syntax-ns#"
   xmlns:svg="http://www.w3.org/2000/svg"
   xmlns="http://www.w3.org/2000/svg"
   xmlns:sodipodi="http://sodipodi.sourceforge.net/DTD/sodipodi-0.dtd"
   xmlns:inkscape="http://www.inkscape.org/namespaces/inkscape"
   width="200mm"
   height="20mm"
   viewBox="0 0 708.66141 70.866142"
   id="svg2"
   version="1.1"
   inkscape:version="0.91 r13725"
   sodipodi:docname="lettuce.svg">
  <sodipodi:namedview
     id="base"
     pagecolor="#ffffff"
     bordercolor="#666666"
     borderopacity="1.0"
     inkscape:pageopacity="0.0"
     inkscape:pageshadow="2"
     inkscape:zoom="0.70000001"
     inkscape:cx="189.14561"
     inkscape:cy="-258.34577"
     inkscape:document-units="mm"
     inkscape:current-layer="layer1"
     showgrid="true"
     inkscape:showpageshadow="false"
     inkscape:window-width="1467"
     inkscape:window-height="1030"
     inkscape:window-x="10"
     inkscape:window-y="40"
     inkscape:window-maximized="0"
     fit-margin-top="0"
     fit-margin-left="0"
     fit-margin-right="0"
     fit-margin-bottom="0">
    <inkscape:grid
       originy="2.7559031e-07"
       originx="-1.2789769e-13"
       type="xygrid"
       id="grid4138"
       units="mm"
       spacingx="3.5433071"
       spacingy="3.5433072"
       dotted="true" />
  </sodipodi:namedview>
  <defs
     id="defs4" />
  <metadata
     id="metadata7">
    <rdf:RDF>
      <cc:Work
         rdf:about="">
        <dc:format>image/svg+xml</dc:format>
        <dc:type
           rdf:resource="http://purl.org/dc/dcmitype/StillImage" />
        <dc:title></dc:title>
      </cc:Work>
    </rdf:RDF>
  </metadata>
  <g
     transform="translate(0,-981.49606)"
     inkscape:label="Layer 1"
     inkscape:groupmode="layer"
     id="layer1">
    <g
       id="g8884">
      <path
         inkscape:connector-curvature="0"
         style="fill:none;fill-opacity:1;stroke:#000000;stroke-width:1.25;stroke-linecap:round;stroke-miterlimit:4;stroke-dasharray:none;stroke-opacity:1"
         d="m 0.63020285,982.11581 0,69.62659 530.93635715,0 176.97749,-34.8143 -176.97749,-34.81229 -530.93635715,0 z"
         id="rect4136" />
      <g
         id="g8875">
        <path
           inkscape:connector-curvature="0"
           d="m 22.699183,1019.9996 4.015425,0 8.030851,-2.0476 6.023138,-4.0953 4.015425,-4.0952 2.007713,-4.0952 0,-6.14289 -2.007713,-4.09524 -4.015425,0 -2.007713,2.04762 -2.007713,4.09521 -2.007712,10.2381 -2.007713,10.2381 -2.007713,6.1429 -2.007712,4.0952 -4.015426,4.0953 -4.015425,2.0476 -4.015426,0 -2.007712,-2.0476 0,-4.0953 2.007712,-2.0476 4.015426,0 4.015425,2.0476 6.023138,4.0953 6.023138,2.0476 4.015426,0 6.023138,-2.0476 4.015425,-4.0953"
           style="fill:none;stroke:#000000;stroke-width:1"
           id="path8832" />
        <path
           inkscape:connector-curvature="0"
           d="m 54.822586,1034.3329 4.015425,-2.0476 2.007713,-2.0476 2.007713,-4.0952 0,-4.0953 -2.007713,-2.0476 -2.007713,0 -4.015425,2.0476 -2.007713,4.0953 0,6.1428 2.007713,4.0953 4.015425,2.0476 4.015426,0 4.015425,-2.0476 2.007713,-2.0477 4.015425,-6.1428"
           style="fill:none;stroke:#000000;stroke-width:1"
           id="path8834" />
        <path
           inkscape:connector-curvature="0"
           d="m 72.892,1028.1901 4.015425,-6.1429 4.015426,-8.1905 m 6.023138,-18.42853 -12.046276,36.85713 0,4.0953 2.007712,2.0476 4.015426,0 4.015425,-2.0476 2.007713,-2.0477 4.015425,-6.1428 m -16.061701,-16.381 14.053988,0"
           style="fill:none;stroke:#000000;stroke-width:1"
           id="path8836" />
        <path
           inkscape:connector-curvature="0"
           d="m 90.961415,1028.1901 4.015425,-6.1429 4.015426,-8.1905 m 6.023134,-18.42853 -12.046272,36.85713 0,4.0953 2.007712,2.0476 4.015426,0 4.015424,-2.0476 2.00771,-2.0477 4.01543,-6.1428 m -16.061702,-16.381 14.053992,0"
           style="fill:none;stroke:#000000;stroke-width:1"
           id="path8838" />
        <path
           inkscape:connector-curvature="0"
           d="m 109.03083,1028.1901 4.01543,-8.1905 -4.01543,12.2857 0,4.0953 2.00772,2.0476 4.01542,0 4.01543,-2.0476 4.01542,-4.0953 4.01543,-6.1428 m 2.00771,-6.1429 -4.01542,12.2857 0,4.0953 2.00771,2.0476 2.00771,0 4.01543,-2.0476 2.00771,-2.0477 4.01542,-6.1428"
           style="fill:none;stroke:#000000;stroke-width:1"
           id="path8840" />
        <path
           inkscape:connector-curvature="0"
           d="m 153.20051,1024.0948 0,-2.0476 -2.00772,-2.0476 -4.01542,0 -4.01543,2.0476 -2.00771,2.0476 -2.00771,4.0953 0,4.0952 2.00771,4.0953 4.01542,2.0476 6.02314,0 6.02314,-4.0953 4.01543,-6.1428"
           style="fill:none;stroke:#000000;stroke-width:1"
           id="path8842" />
        <path
           inkscape:connector-curvature="0"
           d="m 163.23907,1034.3329 4.01543,-2.0476 2.00771,-2.0476 2.00771,-4.0952 0,-4.0953 -2.00771,-2.0476 -2.00771,0 -4.01543,2.0476 -2.00771,4.0953 0,6.1428 2.00771,4.0953 4.01543,2.0476 4.01542,0 4.01543,-2.0476 2.00771,-2.0477 4.01543,-6.1428"
           style="fill:none;stroke:#000000;stroke-width:1"
           id="path8844" />
      </g>
    </g>
  </g>
</svg>
