<?xml version="1.0" encoding="UTF-8" standalone="no"?>
<svg
   xmlns:dc="http://purl.org/dc/elements/1.1/"
   xmlns:cc="http://creativecommons.org/ns#"
   xmlns:rdf="http://www.w3.org/1999/02/22-rdf-syntax-ns#"
   xmlns:svg="http://www.w3.org/2000/svg"
   xmlns="http://www.w3.org/2000/svg"
   xmlns:sodipodi="http://sodipodi.sourceforge.net/DTD/sodipodi-0.dtd"
   xmlns:inkscape="http://www.inkscape.org/namespaces/inkscape"
   width="224.58478mm"
   height="281.25058mm"
   viewBox="0 0 224.58478 281.25058"
   version="1.1"
   id="svg2"
   inkscape:version="0.92.1 r15371"
   sodipodi:docname="flex-box-10cm.svg">
  <sodipodi:namedview
     pagecolor="#ffffff"
     bordercolor="#666666"
     borderopacity="1"
     objecttolerance="10"
     gridtolerance="10"
     guidetolerance="10"
     inkscape:pageopacity="0"
     inkscape:pageshadow="2"
     inkscape:window-width="1920"
     inkscape:window-height="1050"
     id="namedview8"
     showgrid="false"
     inkscape:document-units="mm"
     inkscape:zoom="0.66803482"
     inkscape:cx="-317.27721"
     inkscape:cy="519.58223"
     inkscape:window-x="0"
     inkscape:window-y="30"
     inkscape:window-maximized="0"
     inkscape:current-layer="svg2"
     fit-margin-top="0"
     fit-margin-left="0"
     fit-margin-right="0"
     fit-margin-bottom="0" />
  <metadata
     id="metadata12">
    <rdf:RDF>
      <cc:Work
         rdf:about="">
        <dc:format>image/svg+xml</dc:format>
        <dc:type
           rdf:resource="http://purl.org/dc/dcmitype/StillImage" />
        <dc:title>OpenSCAD Model</dc:title>
      </cc:Work>
    </rdf:RDF>
  </metadata>
  <defs
     id="defs10" />
  <title
     id="title4">OpenSCAD Model</title>
  <path
     style="fill:none;stroke:#000000;stroke-width:0.35277778;stroke-miterlimit:4;stroke-dasharray:none"
     id="path6"
     d="m 203.23239,126.71939 v -0.2 h 18 v -3.806 h -18 v -0.2 h 18 v -3.806 h -18 v -0.2 h 18 v -3.806 h -18 v -0.2 h 18 v -3.806 h -18 v -0.2 h 18 v -3.806 h -18 v -0.2 h 18 v -3.806 h -18 v -0.2 h 18 v -3.806001 h -18 v -0.2 h -4 v 0.2 h -36 v -0.2 h 58 v -3.806 h -18 v -0.2 h 18 v -3.806 h -18 v -0.2 h 18 v -3.807 h -18 v -0.2 h 18 v -3.806 h -18 v -0.2 h 18 v -3.806 h -18 v -0.2 h -4 v 0.2 h -36 v -0.2 h 58 v -3.806 h -18 v -0.2 h 18 v -3.806 h -18 v -0.2 h 18 v -8.906 h 3.176 v -10 h -3.176 v -5 l -0.342,-5.221 -1.021,-5.132 -1.682,-4.954 -2.314,-4.693 -2.907,-4.35 -3.45,-3.934 -3.934,-3.45 -4.35,-2.907 -4.693,-2.3140001 -4.954,-1.682 -5.132,-1.021 -5.221,-0.342 h -5 v -3.176 h -10 v 3.176 h -5 l -5.221,0.342 -5.132,1.021 -4.954,1.682 -4.693,2.3140001 -4.35,2.907 -3.934,3.45 -3.45,3.934 -2.907,4.35 -2.314,4.693 -1.682,4.954 -1.021,5.132 -0.342,5.221 v 5 h -3.176 v 10 h 3.176 v 6.903 h 18 v 0.2 h -18 v 3.806 h 18 v 0.2 h -18 v 3.806 h 18 v 0.2 h -18 v 3.806 h 18 v 0.2 h -18 v 3.806 h 18 v 0.2 h -18 v 3.806 h 18 v 0.2 h -18 v 3.807 h 18 v 0.2 h -18 v 3.806 h 18 v 0.2 h -18 v 3.806001 h 18 v 0.2 h -18 v 3.806 h 18 v 0.2 h -18 v 3.806 h 18 v 0.2 h -18 v 3.806 h 18 v 0.2 h -18 v 3.806 h 18 v 0.2 h -18 v 3.806 h 18 v 0.2 h -18 v 3.806 h 18 v 0.2 h -18 v 3.806 h 18 v 0.2 h -18 v 6.903 h -3.176 v 10 h 3.176 v 6.903 h 18 v 0.2 h -18 v 3.806 h 18 v 0.2 h -18 v 3.806 h 18 v 0.2 h -18 v 3.806 h 18 v 0.2 h -18 v 3.806 h 18 v 0.2 h -18 v 3.806 h 18 v 0.2 h -18 v 3.806 h 18 v 0.2 h -18 v 3.806 h 18 v 0.2 h -18 v 3.806 h 18 v 0.2 h -18 v 3.806 h 18 v 0.2 h -18 v 3.807 h 18 v 0.2 h -18 v 3.806 h 18 v 0.2 h -18 v 3.806 h 18 v 0.2 h -18 v 3.806 h 18 v 0.2 h -18 v 3.806 h 18 v 0.2 h -18 v 3.806 h 18 v 0.2 h -18 v 6.903 h -3.176 v 10 h 3.176 v 5 l 0.342,5.221 1.021,5.1316 1.682,4.9545 2.314,4.6927 2.907,4.3505 3.45,3.9338 3.934,3.4498 4.35,2.9069 4.693,2.3142 4.954,1.6818 5.132,1.0208 5.221,0.3422 h 5 v 3.176 h 10 v -3.176 h 5 l 5.221,-0.3422 5.132,-1.0208 4.954,-1.6818 4.693,-2.3142 4.35,-2.9069 3.934,-3.4498 3.45,-3.9338 2.907,-4.3505 2.314,-4.6927 1.682,-4.9545 1.021,-5.1316 0.342,-5.221 v -5 h 3.176 v -10 h -3.176 v -8.906 h -18 v -0.2 h 18 v -3.806 h -18 v -0.2 h 18 v -3.806 h -18 v -0.2 h 18 v -3.806 h -18 v -0.2 h 18 v -3.806 h -18 v -0.2 h 18 v -3.807 h -18 v -0.2 h 18 v -3.806 h -18 v -0.2 h 18 v -3.806 h -18 v -0.2 h 18 v -3.806 h -18 v -0.2 h 18 v -3.806 h -18 v -0.2 h 18 v -3.806 h -18 v -0.2 h 18 v -3.806 h -18 v -0.2 h 18 v -3.806 h -18 v -0.2 h 18 v -3.806 h -18 v -0.2 h 18 v -3.806 h -18 v -0.2 h 18 v -8.906 h 3.176 v -10 h -3.176 v -8.906 z m -24,-34.051001 h -36 v -0.2 h 36 z m 4,-24.037 v -0.2 h 36 v 0.2 z m -40,0 v -0.2 h 36 v 0.2 z m -20,2.003 v -0.2 h 36 v 0.2 z m 40,0 v -0.2 h 36 v 0.2 z m 20,2.003 v -0.2 h 36 v 0.2 z m -40,0 v -0.2 h 36 v 0.2 z m -20,2.003 v -0.2 h 36 v 0.2 z m 20,2.003 v -0.2 h 36 v 0.2 z m 40,0 v -0.2 h 36 v 0.2 z m 0,4.006 v -0.2 h 36 v 0.2 z m -40,0 v -0.2 h 36 v 0.2 z m -20,2.003 v -0.2 h 36 v 0.2 z m 40,0 v -0.2 h 36 v 0.2 z m 20,2.003 v -0.2 h 36 v 0.2 z m -40,0 v -0.2 h 36 v 0.2 z m -20,2.003 v -0.2 h 36 v 0.2 z m 40,0 v -0.2 h 36 v 0.2 z m -20,2.003 v -0.2 h 36 v 0.2 z m 40,0 v -0.2 h 36 v 0.2 z m -60,2.004 v -0.2 h 36 v 0.2 z m 40,0 v -0.2 h 36 v 0.2 z m 20,2.003 v -0.2 h 36 v 0.2 z m -20,2.003 v -0.2 h 36 v 0.2 z m -40,0 v -0.2 h 36 v 0.2 z m 60,2.003 v -0.2 h 36 v 0.2 z m 0,4.006001 v -0.2 h 36 v 0.2 z m -40,0 v -0.2 h 36 v 0.2 z m 20,2.003 v -0.2 h 36 v 0.2 z m -40,0 v -0.2 h 36 v 0.2 z m 60,2.003 v -0.2 h 36 v 0.2 z m -40,0 v -0.2 h 36 v 0.2 z m 20,2.003 v -0.2 h 36 v 0.2 z m -40,0 v -0.2 h 36 v 0.2 z m 20,2.003 v -0.2 h 36 v 0.2 z m 76,0 h -36 v -0.2 h 36 z m -56,2.003 v -0.2 h 36 v 0.2 z m -40,0 v -0.2 h 36 v 0.2 z m 60,2.003 v -0.2 h 36 v 0.2 z m -40,0 v -0.2 h 36 v 0.2 z m -20,2.003 v -0.2 h 36 v 0.2 z m 40,0 v -0.2 h 36 v 0.2 z m -20,2.003 v -0.2 h 36 v 0.2 z m 40,0 v -0.2 h 36 v 0.2 z m -60,2.003 v -0.2 h 36 v 0.2 z m 40,0 v -0.2 h 36 v 0.2 z m -20,2.003 v -0.2 h 36 v 0.2 z m 40,0 v -0.2 h 36 v 0.2 z m -20,2.003 v -0.2 h 36 v 0.2 z m -40,0 v -0.2 h 36 v 0.2 z m 20,2.003 v -0.2 h 36 v 0.2 z m 40,0 v -0.2 h 36 v 0.2 z m -20,2.003 v -0.2 h 36 v 0.2 z m -40,0 v -0.2 h 36 v 0.2 z m 20,2.003 v -0.2 h 36 v 0.2 z m 40,0 v -0.2 h 36 v 0.2 z m 0,24.006 v -0.2 h 36 v 0.2 z m -60,2.003 v -0.2 h 36 v 0.2 z m 76,0 h -36 v -0.2 h 36 z m -16,2.003 v -0.2 h 36 v 0.2 z m -40,0 v -0.2 h 36 v 0.2 z m -20,2.003 v -0.2 h 36 v 0.2 z m 40,0 v -0.2 h 36 v 0.2 z m 20,2.003 v -0.2 h 36 v 0.2 z m -60,2.003 v -0.2 h 36 v 0.2 z m 40,0 v -0.2 h 36 v 0.2 z m -20,2.003 v -0.2 h 36 v 0.2 z m 40,0 v -0.2 h 36 v 0.2 z m -20,2.003 v -0.2 h 36 v 0.2 z m -40,0 v -0.2 h 36 v 0.2 z m 60,2.003 v -0.2 h 36 v 0.2 z m -40,0 v -0.2 h 36 v 0.2 z m -20,2.003 v -0.2 h 36 v 0.2 z m 40,0 v -0.2 h 36 v 0.2 z m -20,2.003 v -0.2 h 36 v 0.2 z m 40,0 v -0.2 h 36 v 0.2 z m -20,2.003 v -0.2 h 36 v 0.2 z m -40,0 v -0.2 h 36 v 0.2 z m 20,2.003 v -0.2 h 36 v 0.2 z m 40,0 v -0.2 h 36 v 0.2 z m -60,2.003 v -0.2 h 36 v 0.2 z m 40,0 v -0.2 h 36 v 0.2 z m -20,2.003 v -0.2 h 36 v 0.2 z m 40,0 v -0.2 h 36 v 0.2 z m -60,2.003 v -0.2 h 36 v 0.2 z m 40,0 v -0.2 h 36 v 0.2 z m 20,2.003 v -0.2 h 36 v 0.2 z m -40,0 v -0.2 h 36 v 0.2 z m -20,2.003 v -0.2 h 36 v 0.2 z m 40,0 v -0.2 h 36 v 0.2 z m 20,2.003 v -0.2 h 36 v 0.2 z m -40,0 v -0.2 h 36 v 0.2 z m -20,2.003 v -0.2 h 36 v 0.2 z m 40,0 v -0.2 h 36 v 0.2 z m -20,2.004 v -0.2 h 36 v 0.2 z m 76,0 h -36 v -0.2 h 36 z m -56,2.003 v -0.2 h 36 v 0.2 z m -40,0 v -0.2 h 36 v 0.2 z m 20,2.003 v -0.2 h 36 v 0.2 z m 40,0 v -0.2 h 36 v 0.2 z m -60,2.003 v -0.2 h 36 v 0.2 z m 40,0 v -0.2 h 36 v 0.2 z m 20,2.003 v -0.2 h 36 v 0.2 z m -60,2.003 v -0.2 h 36 v 0.2 z m 40,0 v -0.2 h 36 v 0.2 z m 20,2.003 v -0.2 h 36 v 0.2 z m -40,0 v -0.2 h 36 v 0.2 z m 20,2.003 v -0.2 h 36 v 0.2 z m -40,0 v -0.2 h 36 v 0.2 z m 60,2.003 v -0.2 h 36 v 0.2 z m -40,0 v -0.2 h 36 v 0.2 z m 20,2.003 v -0.2 h 36 v 0.2 z m -40,0 v -0.2 h 36 v 0.2 z m 20,2.003 v -0.2 h 36 v 0.2 z m 40,0 v -0.2 h 36 v 0.2 z m -20,-138.179001 v -0.2 h 36 v 0.2 z m -40,4.006 v -0.2 h 36 v 0.2 z m 56,18.028 h -36 v -0.2 h 36 z m 0,56.054001 h -36 v -0.2 h 36 z m -56,-54.051001 v -0.2 h 36 v 0.2 z m 56,62.063001 h -36 v -0.2 h 36 z m 0,40.061 h -36 v -0.2 h 36 z M 112.88039,94.671389 H 92.339389 v -0.2 h 20.541001 v -3.806 H 92.339389 v -0.2 h 20.541001 v -3.807 H 92.339389 v -0.2 h 20.541001 v -3.806 H 92.339389 v -0.2 h 20.541001 v -3.806 H 92.339389 v -0.2 h 20.541001 v -3.806 H 92.339389 v -0.2 h 20.541001 v -3.806 H 92.339389 v -0.2 h 20.541001 v -23.906 l -0.397,-6.05 -1.182,-5.947 -1.949,-5.741 -2.682,-5.438 -3.368,-5.041 -3.998001,-4.559 -4.559,-3.9970001 -5.041,-3.369 -5.438,-2.681 -5.741,-1.949 -5.947,-1.18300001 -6.05,-0.397 h -20 l -6.05,0.397 -5.947,1.18300001 -5.741,1.949 -5.438,2.681 -5.041,3.369 -4.5588,3.9970001 -3.9977001,4.559 -3.3685,5.041 -2.6817,5.438 -1.9489,5.741 -1.18290001,5.947 -0.3965,6.05 v 21.903 H 20.717389 v 0.2 H 0.17638889 v 3.806 H 20.717389 v 0.2 H 0.17638889 v 3.806 H 20.717389 v 0.2 H 0.17638889 v 3.806 H 20.717389 v 0.2 H 0.17638889 v 3.806 H 20.717389 v 0.2 H 0.17638889 v 3.806 H 20.717389 v 0.2 H 0.17638889 v 3.807 H 20.717389 v 0.2 H 0.17638889 v 3.806 H 20.717389 v 0.2 H 0.17638889 v 3.806001 H 20.717389 v 0.2 H 0.17638889 v 3.806 H 20.717389 v 0.2 H 0.17638889 v 3.806 H 20.717389 v 0.2 H 0.17638889 v 3.806 H 20.717389 v 0.2 H 0.17638889 v 3.806 H 20.717389 v 0.2 H 0.17638889 v 3.806 H 20.717389 v 0.2 H 0.17638889 v 3.806 H 20.717389 v 0.2 H 0.17638889 v 3.806 H 20.717389 v 0.2 H 0.17638889 v 23.806 H 20.717389 v 0.2 H 0.17638889 v 3.806 H 20.717389 v 0.2 H 0.17638889 v 3.806 H 20.717389 v 0.2 H 0.17638889 v 3.806 H 20.717389 v 0.2 H 0.17638889 v 3.806 H 20.717389 v 0.2 H 0.17638889 v 3.806 H 20.717389 v 0.2 H 0.17638889 v 3.806 H 20.717389 v 0.2 H 0.17638889 v 3.806 H 20.717389 v 0.2 H 0.17638889 v 3.806 H 20.717389 v 0.2 H 0.17638889 v 3.806 H 20.717389 v 0.2 H 0.17638889 v 3.807 H 20.717389 v 0.2 H 0.17638889 v 3.806 H 20.717389 v 0.2 H 0.17638889 v 3.806 H 20.717389 v 0.2 H 0.17638889 v 3.806 H 20.717389 v 0.2 H 0.17638889 v 3.806 H 20.717389 v 0.2 H 0.17638889 v 3.806 H 20.717389 v 0.2 H 0.17638889 v 21.903 l 0.3965,6.05 1.18290001,5.9466 1.9489,5.7413 2.6817,5.4379 3.3685,5.0413 3.9977001,4.5585 4.5588,3.9977 5.041,3.3685 5.438,2.6817 5.741,1.9489 5.947,1.1829 6.05,0.3965 h 20 l 6.05,-0.3965 5.947,-1.1829 5.741,-1.9489 5.438,-2.6817 5.041,-3.3685 4.559,-3.9977 3.998001,-4.5585 3.368,-5.0413 2.682,-5.4379 1.949,-5.7413 1.182,-5.9466 0.397,-6.05 v -23.906 H 92.339389 v -0.2 h 20.541001 v -3.806 H 92.339389 v -0.2 h 20.541001 v -3.806 H 92.339389 v -0.2 h 20.541001 v -3.806 H 92.339389 v -0.2 h 20.541001 v -3.806 H 92.339389 v -0.2 h 20.541001 v -3.807 H 92.339389 v -0.2 h 20.541001 v -3.806 H 92.339389 v -0.2 h 20.541001 v -3.806 H 92.339389 v -0.2 h 20.541001 v -3.806 H 92.339389 v -0.2 h 20.541001 v -3.806 H 92.339389 v -0.2 h 20.541001 v -3.806 H 92.339389 v -0.2 h 20.541001 v -3.806 H 92.339389 v -0.2 h 20.541001 v -3.806 H 92.339389 v -0.2 h 20.541001 v -3.806 H 92.339389 v -0.2 h 20.541001 v -3.806 H 92.339389 v -0.2 h 20.541001 v -27.812 H 92.339389 v -0.2 h 20.541001 v -3.806 H 92.339389 v -0.2 h 20.541001 v -3.806 H 92.339389 v -0.2 h 20.541001 v -3.806 H 92.339389 v -0.2 h 20.541001 v -3.806 H 92.339389 v -0.2 h 20.541001 v -3.806 H 92.339389 v -0.2 h 20.541001 v -3.806 H 92.339389 v -0.2 H 112.88039 V 98.677389 H 92.339389 v -0.2 h 20.541001 z m -2,14.021001 H 69.798389 v -0.2 H 110.88039 Z M 51.528389,6.5783889 v -3.276 h 10 v 3.276 z M 3.3523889,61.528389 v -10 h 3.176 v 10 z m 103.1760011,0 v -10 h 3.176 v 10 z m -81.811001,7.103 v -0.2 h 41.081 v 0.2 z m 45.081,0 v -0.2 h 41.082001 v 0.2 z m -45.081,4.006 v -0.2 h 41.081 v 0.2 z m 86.163001,0 H 69.798389 v -0.2 h 41.082001 z m -108.7040011,2.003 v -0.2 H 43.258389 v 0.2 z m 45.0820001,0 v -0.2 h 41.081 v 0.2 z m 22.54,2.003 v -0.2 h 41.082001 v 0.2 z m -45.081,0 v -0.2 h 41.081 v 0.2 z m -22.5410001,2.003 v -0.2 H 43.258389 v 0.2 z m 45.0820001,0 v -0.2 h 41.081 v 0.2 z m -22.541,2.003 v -0.2 h 41.081 v 0.2 z m 86.163001,0 H 69.798389 v -0.2 h 41.082001 z m -108.7040011,2.003 v -0.2 H 43.258389 v 0.2 z m 45.0820001,0 v -0.2 h 41.081 v 0.2 z m 22.54,2.003 v -0.2 h 41.082001 v 0.2 z m -45.081,0 v -0.2 h 41.081 v 0.2 z m 22.541,2.003 v -0.2 h 41.081 v 0.2 z m -45.0820001,0 v -0.2 H 43.258389 v 0.2 z m 67.6220001,2.003 v -0.2 h 41.082001 v 0.2 z m -45.081,0 v -0.2 h 41.081 v 0.2 z m 22.541,2.004 v -0.2 h 41.081 v 0.2 z m -45.0820001,0 v -0.2 H 43.258389 v 0.2 z m 22.5410001,2.003 v -0.2 h 41.081 v 0.2 z m 45.081,0 v -0.2 h 41.082001 v 0.2 z m -67.6220001,2.003 v -0.2 H 43.258389 v 0.2 z m 45.0820001,0 v -0.2 h 41.081 v 0.2 z m 22.54,2.003 v -0.2 h 41.082001 v 0.2 z m -45.081,0 v -0.2 h 41.081 v 0.2 z m 0,4.006001 v -0.2 h 41.081 v 0.2 z m 45.081,0 v -0.2 h 41.082001 v 0.2 z m -67.6220001,2.003 v -0.2 H 43.258389 v 0.2 z m 45.0820001,0 v -0.2 h 41.081 v 0.2 z m 22.54,2.003 v -0.2 h 41.082001 v 0.2 z m -45.081,0 v -0.2 h 41.081 v 0.2 z m 22.541,2.003 v -0.2 h 41.081 v 0.2 z m -45.0820001,0 v -0.2 H 43.258389 v 0.2 z m 45.0820001,4.006 v -0.2 h 41.081 v 0.2 z m -45.0820001,0 v -0.2 H 43.258389 v 0.2 z m 67.6220001,2.003 v -0.2 h 41.082001 v 0.2 z m -22.54,2.003 v -0.2 h 41.081 v 0.2 z m -45.0820001,0 v -0.2 H 43.258389 v 0.2 z m 67.6220001,2.003 v -0.2 h 41.082001 v 0.2 z m -45.081,0 v -0.2 h 41.081 v 0.2 z m 22.541,2.003 v -0.2 h 41.081 v 0.2 z m -45.0820001,0 v -0.2 H 43.258389 v 0.2 z m 22.5410001,2.003 v -0.2 h 41.081 v 0.2 z m 45.081,0 v -0.2 h 41.082001 v 0.2 z m -67.6220001,2.003 v -0.2 H 43.258389 v 0.2 z m 45.0820001,0 v -0.2 h 41.081 v 0.2 z m 22.54,2.003 v -0.2 h 41.082001 v 0.2 z m -45.081,0 v -0.2 h 41.081 v 0.2 z m 22.541,2.003 v -0.2 h 41.081 v 0.2 z m -45.0820001,0 v -0.2 H 43.258389 v 0.2 z m 1.176,18.906 v -10 h 3.176 v 10 z m 103.1760011,0 v -10 h 3.176 v 10 z m -81.811001,7.103 v -0.2 h 41.081 v 0.2 z m 45.081,0 v -0.2 h 41.082001 v 0.2 z m -22.54,2.003 v -0.2 h 41.081 v 0.2 z m -45.0820001,0 v -0.2 H 43.258389 v 0.2 z m 67.6220001,2.003 v -0.2 h 41.082001 v 0.2 z m -45.081,0 v -0.2 h 41.081 v 0.2 z m 22.541,2.003 v -0.2 h 41.081 v 0.2 z m -45.0820001,0 v -0.2 H 43.258389 v 0.2 z m 67.6220001,2.003 v -0.2 h 41.082001 v 0.2 z m -45.081,0 v -0.2 h 41.081 v 0.2 z m 22.541,2.003 v -0.2 h 41.081 v 0.2 z m -45.0820001,0 v -0.2 H 43.258389 v 0.2 z m 67.6220001,2.003 v -0.2 h 41.082001 v 0.2 z m -45.081,0 v -0.2 h 41.081 v 0.2 z m -22.5410001,2.003 v -0.2 H 43.258389 v 0.2 z m 45.0820001,0 v -0.2 h 41.081 v 0.2 z m -22.541,2.003 v -0.2 h 41.081 v 0.2 z m 45.081,0 v -0.2 h 41.082001 v 0.2 z m -67.6220001,2.003 v -0.2 H 43.258389 v 0.2 z m 86.1630001,0 h -41.081 v -0.2 h 41.081 z m -18.541,2.003 v -0.2 h 41.082001 v 0.2 z m -45.081,0 v -0.2 h 41.081 v 0.2 z m -22.5410001,2.003 v -0.2 H 43.258389 v 0.2 z m 45.0820001,0 v -0.2 h 41.081 v 0.2 z m 22.54,2.003 v -0.2 h 41.082001 v 0.2 z m -67.6220001,2.003 v -0.2 H 43.258389 v 0.2 z m 45.0820001,0 v -0.2 h 41.081 v 0.2 z m -22.541,2.003 v -0.2 h 41.081 v 0.2 z m 86.163001,0 H 69.798389 v -0.2 h 41.082001 z m -108.7040011,2.003 v -0.2 H 43.258389 v 0.2 z m 86.1630001,0 h -41.081 v -0.2 h 41.081 z m -18.541,2.003 v -0.2 h 41.082001 v 0.2 z m -45.081,0 v -0.2 h 41.081 v 0.2 z m 22.541,2.003 v -0.2 h 41.081 v 0.2 z m -45.0820001,0 v -0.2 H 43.258389 v 0.2 z m 67.6220001,2.003 v -0.2 h 41.082001 v 0.2 z m -45.081,0 v -0.2 h 41.081 v 0.2 z m -22.5410001,2.003 v -0.2 H 43.258389 v 0.2 z m 45.0820001,0 v -0.2 h 41.081 v 0.2 z m -22.541,2.004 v -0.2 h 41.081 v 0.2 z m 45.081,0 v -0.2 h 41.082001 v 0.2 z m -67.6220001,2.003 v -0.2 H 43.258389 v 0.2 z m 45.0820001,0 v -0.2 h 41.081 v 0.2 z m 22.54,2.003 v -0.2 h 41.082001 v 0.2 z m -22.54,2.003 v -0.2 h 41.081 v 0.2 z m -45.0820001,0 v -0.2 H 43.258389 v 0.2 z m 67.6220001,2.003 v -0.2 h 41.082001 v 0.2 z m -67.6220001,2.003 v -0.2 H 43.258389 v 0.2 z m 45.0820001,0 v -0.2 h 41.081 v 0.2 z m -22.541,2.003 v -0.2 h 41.081 v 0.2 z m 45.081,0 v -0.2 h 41.082001 v 0.2 z m -67.6220001,2.003 v -0.2 H 43.258389 v 0.2 z m 45.0820001,0 v -0.2 h 41.081 v 0.2 z m 22.54,2.003 v -0.2 h 41.082001 v 0.2 z m -45.081,0 v -0.2 h 41.081 v 0.2 z m -22.5410001,2.003 v -0.2 H 43.258389 v 0.2 z m 45.0820001,0 v -0.2 h 41.081 v 0.2 z m -22.541,2.003 v -0.2 h 41.081 v 0.2 z m 45.081,0 v -0.2 h 41.082001 v 0.2 z m -66.4460001,16.903 v -10 h 3.176 v 10 z m 103.1760011,0 v -10 h 3.176 v 10 z m -55.000001,48.2258 v -3.276 h 10 v 3.276 z m 36.811,-207.313801 h -41.081 v -0.2 h 41.081 z m -86.1630001,0 v -0.2 H 43.258389 v 0.2 z m 86.1630001,28.043 h -41.081 v -0.2 h 41.081 z m -86.1630001,0 v -0.2 H 43.258389 v 0.2 z M 65.798389,112.69839 h -41.081 v -0.2 h 41.081 z m 0,-4.006 h -41.081 v -0.2 h 41.081 z m 45.082001,20.03 H 69.798389 v -0.2 h 41.082001 z m -45.082001,48.042 h -41.081 v -0.2 h 41.081 z m 0,-48.042 h -41.081 v -0.2 h 41.081 z m 0,68.073 h -41.081 v -0.2 h 41.081 z m 0,4.006 h -41.081 v -0.2 h 41.081 z"
     inkscape:connector-curvature="0" />
  <path
     id="path5019"
     style="fill:none;stroke:#000000;stroke-width:0.35277778;stroke-miterlimit:4;stroke-dasharray:none"
     d=""
     inkscape:connector-curvature="0" />
  <path
     inkscape:connector-curvature="0"
     d=""
     style="fill:none;stroke:#000000;stroke-width:0.35277778;stroke-miterlimit:4;stroke-dasharray:none"
     id="path5114" />
  <g
     id="g4579">
    <path
       inkscape:connector-curvature="0"
       d="m 11.505251,235.22979 0.447791,0.4501 v 1.35031 l -0.447791,1.80041 -0.447791,1.3503 -0.447791,0.90021 -0.8955816,1.3503 -0.8955817,0.90021 -0.8955817,0.4501 H 7.4751331 l -0.4477908,-0.4501 v -1.35031 l 0.4477908,-2.25051 0.4477909,-1.35031 0.4477908,-0.9002 0.8955818,-1.35031 0.8955814,-0.9002 0.895582,-0.4501 1.343373,-0.4501 h 1.343372 l 0.895582,0.4501 0.447791,0.9002 v 0.90021 l -0.447791,0.9002 -0.447791,0.4501 -0.895582,0.4501 -1.343372,0.45011 m -0.447791,0 h 0.447791 l 1.343372,0.4501 0.447791,0.4501 0.447791,0.9002 v 1.35031 l -0.447791,0.9002 -0.447791,0.45011 -0.895581,0.4501 H 11.05746 l -0.895582,-0.4501 -0.4477906,-0.90021"
       style="fill:none;stroke:#000000;stroke-width:0.35277778;stroke-miterlimit:4;stroke-dasharray:none"
       id="path5013" />
    <path
       inkscape:connector-curvature="0"
       d="m 18.669904,239.73081 h -0.895582 l -0.895581,0.4501 -0.447791,0.4501 -0.447791,0.90021 v 0.9002 l 0.447791,0.90021 0.895581,0.4501 h 0.895582 l 0.895582,-0.4501 0.447791,-0.45011 0.447791,-0.9002 v -0.9002 l -0.447791,-0.90021 -0.895582,-0.4501 -0.447791,0.4501 v 0.90021 l 0.447791,0.9002 0.895582,0.4501 h 1.343372 l 0.895582,-0.4501 0.447791,-0.4501"
       style="fill:none;stroke:#000000;stroke-width:0.35277778;stroke-miterlimit:4;stroke-dasharray:none"
       id="path5015" />
    <path
       inkscape:connector-curvature="0"
       d="m 22.252231,241.53122 0.895582,-1.35031 0.895582,-0.4501 0.44779,0.4501 v 0.4501 l -0.44779,1.80041 -0.447791,1.35031 m 0.447791,-1.35031 0.44779,-0.9002 0.895582,-1.35031 0.895582,-0.4501 h 0.895582 l 0.44779,0.4501 v 0.90021 l -0.44779,1.3503 v 0.90021 l 0.44779,0.4501 h 0.447791 l 0.895582,-0.4501 0.447791,-0.45011 0.895582,-1.3503"
       style="fill:none;stroke:#000000;stroke-width:0.35277778;stroke-miterlimit:4;stroke-dasharray:none"
       id="path5017" />
    <path
       inkscape:connector-curvature="0"
       d="m 41.507239,241.08112 -0.447791,-0.90021 -0.895582,-0.4501 h -0.895582 l -0.895581,0.4501 -0.447791,0.4501 -0.447791,0.90021 v 0.9002 l 0.447791,0.90021 0.895581,0.4501 h 0.895582 l 0.895582,-0.4501 0.447791,-0.90021 0.895581,-2.70061 -0.44779,2.25051 v 1.35031 l 0.44779,0.4501 h 0.447791 l 0.895582,-0.4501 0.447791,-0.45011 0.895582,-1.3503"
       style="fill:none;stroke:#000000;stroke-width:0.35277778;stroke-miterlimit:4;stroke-dasharray:none"
       id="path5021" />
    <path
       inkscape:connector-curvature="0"
       d="m 44.641774,241.53122 0.895582,-1.35031 0.895582,-0.4501 0.44779,0.4501 v 0.4501 l -0.44779,1.80041 -0.447791,1.35031 m 0.447791,-1.35031 0.44779,-0.9002 0.895582,-1.35031 0.895582,-0.4501 h 0.895582 l 0.44779,0.4501 v 0.90021 l -0.44779,1.3503 v 0.90021 l 0.44779,0.4501 h 0.447791 l 0.895582,-0.4501 0.447791,-0.45011 0.895582,-1.3503"
       style="fill:none;stroke:#000000;stroke-width:0.35277778;stroke-miterlimit:4;stroke-dasharray:none"
       id="path5023" />
    <path
       inkscape:connector-curvature="0"
       d="m 52.70201,241.53122 0.895582,-1.35031 0.895582,-0.4501 0.44779,0.4501 v 0.4501 l -0.44779,1.80041 -0.447791,1.35031 m 0.447791,-1.35031 0.44779,-0.9002 0.895582,-1.35031 0.895582,-0.4501 h 0.895582 l 0.44779,0.4501 v 0.90021 l -0.44779,1.3503 v 0.90021 l 0.44779,0.4501 h 0.447791 l 0.895582,-0.4501 0.447791,-0.45011 0.895582,-1.3503"
       style="fill:none;stroke:#000000;stroke-width:0.35277778;stroke-miterlimit:4;stroke-dasharray:none"
       id="path5025" />
    <path
       inkscape:connector-curvature="0"
       d="m 62.105618,237.4803 v 0.4501 h 0.447791 v -0.4501 h -0.447791 m -1.343373,4.05092 0.895582,-1.80041 -0.895582,2.70061 v 0.90021 l 0.447791,0.4501 h 0.447791 l 0.895582,-0.4501 0.447791,-0.45011 0.895581,-1.3503"
       style="fill:none;stroke:#000000;stroke-width:0.35277778;stroke-miterlimit:4;stroke-dasharray:none"
       id="path5027" />
    <path
       inkscape:connector-curvature="0"
       d="m 63.896781,241.53122 0.895582,-1.80041 -0.447791,2.25051 v 1.35031 l 0.447791,0.4501 h 0.44779 l 1.343373,-0.4501 0.895582,-0.90021 0.447791,-1.3503 v -1.35031 m 0,0 0.44779,1.80041 0.447791,0.4501 h 0.895582 l 0.895582,-0.4501"
       style="fill:none;stroke:#000000;stroke-width:0.35277778;stroke-miterlimit:4;stroke-dasharray:none"
       id="path5029" />
    <path
       inkscape:connector-curvature="0"
       d="m 71.061435,242.88152 0.895582,-0.4501 0.447791,-0.4501 0.447791,-0.9002 v -0.90021 l -0.447791,-0.4501 h -0.447791 l -0.895582,0.4501 -0.44779,0.90021 v 1.3503 l 0.44779,0.90021 0.895582,0.4501 h 0.895582 l 0.895582,-0.4501 0.44779,-0.45011 0.895582,-1.3503"
       style="fill:none;stroke:#000000;stroke-width:0.35277778;stroke-miterlimit:4;stroke-dasharray:none"
       id="path5031" />
    <path
       inkscape:connector-curvature="0"
       d="m 75.091553,241.53122 0.895581,-1.35031 0.447791,-0.9002 v 0.9002 h 1.343373 l 0.447791,0.4501 v 0.90021 l -0.447791,1.3503 v 0.45011 l 0.447791,0.4501 h 0.447791 l 0.895581,-0.4501 0.447791,-0.45011 0.895582,-1.3503"
       style="fill:none;stroke:#000000;stroke-width:0.35277778;stroke-miterlimit:4;stroke-dasharray:none"
       id="path5033" />
    <path
       inkscape:connector-curvature="0"
       d="m 80.912834,241.53122 0.895581,-1.35031 0.447791,-0.9002 v 0.9002 l 0.895582,1.35031 0.447791,0.9002 v 0.90021 l -0.895582,0.4501 m -1.791163,-0.4501 0.895581,0.4501 h 1.791164 l 0.895581,-0.4501 0.447791,-0.45011 0.895582,-1.3503"
       style="fill:none;stroke:#000000;stroke-width:0.35277778;stroke-miterlimit:4;stroke-dasharray:none"
       id="path5035" />
    <path
       inkscape:connector-curvature="0"
       d="m 89.868651,241.08112 -0.447791,-0.90021 -0.895582,-0.4501 h -0.895582 l -0.895581,0.4501 -0.447791,0.4501 -0.447791,0.90021 v 0.9002 l 0.447791,0.90021 0.895581,0.4501 h 0.895582 l 0.895582,-0.4501 0.447791,-0.90021 0.895581,-2.70061 -0.44779,2.25051 v 1.35031 l 0.44779,0.4501 h 0.447791 l 0.895582,-0.4501 0.447791,-0.45011 0.895582,-1.3503"
       style="fill:none;stroke:#000000;stroke-width:0.35277778;stroke-miterlimit:4;stroke-dasharray:none"
       id="path5037" />
    <path
       inkscape:connector-curvature="0"
       d="m 94.34656,237.4803 v 0.4501 h 0.447791 v -0.4501 H 94.34656 m -1.343373,4.05092 0.895582,-1.80041 -0.895582,2.70061 v 0.90021 l 0.447791,0.4501 h 0.447791 l 0.895582,-0.4501 0.447791,-0.45011 0.895581,-1.3503"
       style="fill:none;stroke:#000000;stroke-width:0.35277778;stroke-miterlimit:4;stroke-dasharray:none"
       id="path5039" />
    <path
       inkscape:connector-curvature="0"
       d="m 96.137723,241.53122 0.895581,-1.35031 0.447791,-0.9002 v 0.9002 h 1.343373 l 0.447791,0.4501 v 0.90021 l -0.447791,1.3503 v 0.45011 l 0.447791,0.4501 h 0.447791 l 0.89558,-0.4501 0.44779,-0.45011 0.89558,-1.3503"
       style="fill:none;stroke:#000000;stroke-width:0.35277778;stroke-miterlimit:4;stroke-dasharray:none"
       id="path5041" />
    <path
       inkscape:connector-curvature="0"
       d="m 102.4068,242.88152 0.89558,-0.4501 0.44779,-0.4501 0.44779,-0.9002 v -0.90021 l -0.44779,-0.4501 h -0.44779 l -0.89558,0.4501 -0.44779,0.90021 v 1.3503 l 0.44779,0.90021 0.89558,0.4501 h 0.89558 l 0.89558,-0.4501 0.44779,-0.45011 0.89559,-1.3503"
       style="fill:none;stroke:#000000;stroke-width:0.35277778;stroke-miterlimit:4;stroke-dasharray:none"
       id="path5043" />
    <path
       id="path5108"
       style="fill:none;stroke:#000000;stroke-width:0.35277778;stroke-miterlimit:4;stroke-dasharray:none"
       d="m 26.949218,256.38459 0.895582,-1.35031 0.895581,-0.4501 0.447791,0.4501 v 0.4501 l -0.447791,1.80041 -0.447791,1.35031 m 0.447791,-1.35031 0.447791,-0.9002 0.895582,-1.35031 0.895582,-0.4501 h 0.895581 l 0.447791,0.4501 v 0.4501 l -0.447791,1.80041 -0.447791,1.35031 m 0.447791,-1.35031 0.447791,-0.9002 0.895582,-1.35031 0.895582,-0.4501 h 0.895581 l 0.447791,0.4501 v 0.90021 l -0.447791,1.3503 v 0.90021 l 0.447791,0.4501 h 0.447791 l 0.895582,-0.4501 0.447791,-0.45011 0.895581,-1.3503"
       inkscape:connector-curvature="0" />
    <path
       id="path5110"
       style="fill:none;stroke:#000000;stroke-width:0.35277778;stroke-miterlimit:4;stroke-dasharray:none"
       d="m 40.830735,254.58418 h -0.895582 l -0.895581,0.4501 -0.447791,0.4501 -0.447791,0.90021 v 0.9002 l 0.447791,0.90021 0.895581,0.4501 h 0.895582 l 0.895582,-0.4501 0.447791,-0.45011 0.447791,-0.9002 v -0.9002 l -0.447791,-0.90021 -0.895582,-0.4501 -0.447791,0.4501 v 0.90021 l 0.447791,0.9002 0.895582,0.4501 h 1.343372 l 0.895582,-0.4501 0.447791,-0.4501"
       inkscape:connector-curvature="0" />
    <path
       id="path5112"
       style="fill:none;stroke:#000000;stroke-width:0.35277778;stroke-miterlimit:4;stroke-dasharray:none"
       d="m 44.413061,256.38459 0.895582,-1.35031 0.895582,-0.4501 0.44779,0.4501 v 0.4501 l -0.44779,1.80041 -0.447791,1.35031 m 0.447791,-1.35031 0.44779,-0.9002 0.895582,-1.35031 0.895582,-0.4501 h 0.895582 l 0.44779,0.4501 v 0.90021 l -0.44779,1.3503 v 0.90021 l 0.44779,0.4501 h 0.447791 l 0.895582,-0.4501 0.447791,-0.45011 0.895582,-1.3503"
       inkscape:connector-curvature="0" />
    <path
       id="path5116"
       style="fill:none;stroke:#000000;stroke-width:0.35277778;stroke-miterlimit:4;stroke-dasharray:none"
       d="m 59.637951,258.6351 0.895581,-0.4501 1.343373,-1.35031 1.343372,-1.80041 1.791164,-3.15071 1.343372,-2.70061 v 9.45214 l -0.44779,-1.35031 -0.895582,-1.3503 -0.895582,-0.90021 -1.343372,-0.9002 h -0.895582 l -0.447791,0.4501 v 0.9002 l 0.447791,0.90021 0.895582,0.9002 1.343372,0.90021 1.343373,0.4501 h 2.238954"
       inkscape:connector-curvature="0" />
    <path
       id="path5118"
       style="fill:none;stroke:#000000;stroke-width:0.35277778;stroke-miterlimit:4;stroke-dasharray:none"
       d="m 68.593768,256.38459 0.895582,-1.35031 0.895581,-0.4501 0.447791,0.4501 v 0.4501 l -0.447791,1.80041 -0.447791,1.35031 m 0.447791,-1.35031 0.447791,-0.9002 0.895582,-1.35031 0.895582,-0.4501 h 0.895581 l 0.447791,0.4501 v 0.4501 l -0.447791,1.80041 -0.447791,1.35031 m 0.447791,-1.35031 0.447791,-0.9002 0.895582,-1.35031 0.895582,-0.4501 h 0.895581 l 0.447791,0.4501 v 0.90021 l -0.447791,1.3503 v 0.90021 l 0.447791,0.4501 h 0.447791 l 0.895582,-0.4501 0.447791,-0.45011 0.895581,-1.3503"
       inkscape:connector-curvature="0" />
    <path
       id="path5120"
       style="fill:none;stroke:#000000;stroke-width:0.35277778;stroke-miterlimit:4;stroke-dasharray:none"
       d="m 79.78854,256.38459 0.895582,-1.80041 -0.895582,2.70061 v 0.90021 l 0.447791,0.4501 h 0.895581 l 0.895582,-0.4501 0.895582,-0.90021 0.895582,-1.3503 m 0.44779,-1.35031 -2.686745,8.10184 -0.447791,0.9002 -0.895581,0.4501 -0.447791,-0.4501 v -0.9002 l 0.447791,-1.35031 1.343372,-1.35031 1.343373,-0.9002 0.895582,-0.4501 1.343372,-0.90021 1.343373,-1.3503"
       inkscape:connector-curvature="0" />
  </g>
</svg>
