<?xml version="1.0" encoding="UTF-8" standalone="no"?>
<svg
   xmlns:dc="http://purl.org/dc/elements/1.1/"
   xmlns:cc="http://creativecommons.org/ns#"
   xmlns:rdf="http://www.w3.org/1999/02/22-rdf-syntax-ns#"
   xmlns:svg="http://www.w3.org/2000/svg"
   xmlns="http://www.w3.org/2000/svg"
   xmlns:sodipodi="http://sodipodi.sourceforge.net/DTD/sodipodi-0.dtd"
   xmlns:inkscape="http://www.inkscape.org/namespaces/inkscape"
   width="225mm"
   height="282mm"
   viewBox="83 -341 225 282"
   version="1.1"
   id="svg2"
   inkscape:version="0.91 r13725"
   sodipodi:docname="flex-box-10cm.svg">
  <metadata
     id="metadata12">
    <rdf:RDF>
      <cc:Work
         rdf:about="">
        <dc:format>image/svg+xml</dc:format>
        <dc:type
           rdf:resource="http://purl.org/dc/dcmitype/StillImage" />
        <dc:title>OpenSCAD Model</dc:title>
      </cc:Work>
    </rdf:RDF>
  </metadata>
  <defs
     id="defs10" />
  <sodipodi:namedview
     pagecolor="#ffffff"
     bordercolor="#666666"
     borderopacity="1"
     objecttolerance="10"
     gridtolerance="10"
     guidetolerance="10"
     inkscape:pageopacity="0"
     inkscape:pageshadow="2"
     inkscape:window-width="841"
     inkscape:window-height="1030"
     id="namedview8"
     showgrid="false"
     inkscape:document-units="mm"
     inkscape:zoom="0.33401741"
     inkscape:cx="659.847"
     inkscape:cy="291.698"
     inkscape:window-x="860"
     inkscape:window-y="40"
     inkscape:window-maximized="0"
     inkscape:current-layer="svg2" />
  <title
     id="title4">OpenSCAD Model</title>
  <path
     d=" M 286.176,-213.906 L 286.176,-214.106 L 304.176,-214.106 L 304.176,-217.912 L 286.176,-217.912 L 286.176,-218.112  L 304.176,-218.112 L 304.176,-221.918 L 286.176,-221.918 L 286.176,-222.118 L 304.176,-222.118 L 304.176,-225.924  L 286.176,-225.924 L 286.176,-226.124 L 304.176,-226.124 L 304.176,-229.93 L 286.176,-229.93 L 286.176,-230.13  L 304.176,-230.13 L 304.176,-233.936 L 286.176,-233.936 L 286.176,-234.136 L 304.176,-234.136 L 304.176,-237.942  L 286.176,-237.942 L 286.176,-238.142 L 304.176,-238.142 L 304.176,-241.948 L 286.176,-241.948 L 286.176,-242.148  L 282.176,-242.148 L 282.176,-241.948 L 246.176,-241.948 L 246.176,-242.148 L 304.176,-242.148 L 304.176,-245.954  L 286.176,-245.954 L 286.176,-246.154 L 304.176,-246.154 L 304.176,-249.96 L 286.176,-249.96 L 286.176,-250.16  L 304.176,-250.16 L 304.176,-253.967 L 286.176,-253.967 L 286.176,-254.167 L 304.176,-254.167 L 304.176,-257.973  L 286.176,-257.973 L 286.176,-258.173 L 304.176,-258.173 L 304.176,-261.979 L 286.176,-261.979 L 286.176,-262.179  L 282.176,-262.179 L 282.176,-261.979 L 246.176,-261.979 L 246.176,-262.179 L 304.176,-262.179 L 304.176,-265.985  L 286.176,-265.985 L 286.176,-266.185 L 304.176,-266.185 L 304.176,-269.991 L 286.176,-269.991 L 286.176,-270.191  L 304.176,-270.191 L 304.176,-279.097 L 307.352,-279.097 L 307.352,-289.097 L 304.176,-289.097 L 304.176,-294.097  L 303.834,-299.318 L 302.813,-304.45 L 301.131,-309.404 L 298.817,-314.097 L 295.91,-318.447 L 292.46,-322.381  L 288.526,-325.831 L 284.176,-328.738 L 279.483,-331.052 L 274.529,-332.734 L 269.397,-333.755 L 264.176,-334.097  L 259.176,-334.097 L 259.176,-337.273 L 249.176,-337.273 L 249.176,-334.097 L 244.176,-334.097 L 238.955,-333.755  L 233.823,-332.734 L 228.869,-331.052 L 224.176,-328.738 L 219.826,-325.831 L 215.892,-322.381 L 212.442,-318.447  L 209.535,-314.097 L 207.221,-309.404 L 205.539,-304.45 L 204.518,-299.318 L 204.176,-294.097 L 204.176,-289.097  L 201,-289.097 L 201,-279.097 L 204.176,-279.097 L 204.176,-272.194 L 222.176,-272.194 L 222.176,-271.994  L 204.176,-271.994 L 204.176,-268.188 L 222.176,-268.188 L 222.176,-267.988 L 204.176,-267.988 L 204.176,-264.182  L 222.176,-264.182 L 222.176,-263.982 L 204.176,-263.982 L 204.176,-260.176 L 222.176,-260.176 L 222.176,-259.976  L 204.176,-259.976 L 204.176,-256.17 L 222.176,-256.17 L 222.176,-255.97 L 204.176,-255.97 L 204.176,-252.164  L 222.176,-252.164 L 222.176,-251.964 L 204.176,-251.964 L 204.176,-248.157 L 222.176,-248.157 L 222.176,-247.957  L 204.176,-247.957 L 204.176,-244.151 L 222.176,-244.151 L 222.176,-243.951 L 204.176,-243.951 L 204.176,-240.145  L 222.176,-240.145 L 222.176,-239.945 L 204.176,-239.945 L 204.176,-236.139 L 222.176,-236.139 L 222.176,-235.939  L 204.176,-235.939 L 204.176,-232.133 L 222.176,-232.133 L 222.176,-231.933 L 204.176,-231.933 L 204.176,-228.127  L 222.176,-228.127 L 222.176,-227.927 L 204.176,-227.927 L 204.176,-224.121 L 222.176,-224.121 L 222.176,-223.921  L 204.176,-223.921 L 204.176,-220.115 L 222.176,-220.115 L 222.176,-219.915 L 204.176,-219.915 L 204.176,-216.109  L 222.176,-216.109 L 222.176,-215.909 L 204.176,-215.909 L 204.176,-212.103 L 222.176,-212.103 L 222.176,-211.903  L 204.176,-211.903 L 204.176,-205 L 201,-205 L 201,-195 L 204.176,-195 L 204.176,-188.097  L 222.176,-188.097 L 222.176,-187.897 L 204.176,-187.897 L 204.176,-184.091 L 222.176,-184.091 L 222.176,-183.891  L 204.176,-183.891 L 204.176,-180.085 L 222.176,-180.085 L 222.176,-179.885 L 204.176,-179.885 L 204.176,-176.079  L 222.176,-176.079 L 222.176,-175.879 L 204.176,-175.879 L 204.176,-172.073 L 222.176,-172.073 L 222.176,-171.873  L 204.176,-171.873 L 204.176,-168.067 L 222.176,-168.067 L 222.176,-167.867 L 204.176,-167.867 L 204.176,-164.061  L 222.176,-164.061 L 222.176,-163.861 L 204.176,-163.861 L 204.176,-160.055 L 222.176,-160.055 L 222.176,-159.855  L 204.176,-159.855 L 204.176,-156.049 L 222.176,-156.049 L 222.176,-155.849 L 204.176,-155.849 L 204.176,-152.043  L 222.176,-152.043 L 222.176,-151.843 L 204.176,-151.843 L 204.176,-148.036 L 222.176,-148.036 L 222.176,-147.836  L 204.176,-147.836 L 204.176,-144.03 L 222.176,-144.03 L 222.176,-143.83 L 204.176,-143.83 L 204.176,-140.024  L 222.176,-140.024 L 222.176,-139.824 L 204.176,-139.824 L 204.176,-136.018 L 222.176,-136.018 L 222.176,-135.818  L 204.176,-135.818 L 204.176,-132.012 L 222.176,-132.012 L 222.176,-131.812 L 204.176,-131.812 L 204.176,-128.006  L 222.176,-128.006 L 222.176,-127.806 L 204.176,-127.806 L 204.176,-120.903 L 201,-120.903 L 201,-110.903  L 204.176,-110.903 L 204.176,-105.903 L 204.518,-100.682 L 205.539,-95.5504 L 207.221,-90.5959 L 209.535,-85.9032  L 212.442,-81.5527 L 215.892,-77.6189 L 219.826,-74.1691 L 224.176,-71.2622 L 228.869,-68.948 L 233.823,-67.2662  L 238.955,-66.2454 L 244.176,-65.9032 L 249.176,-65.9032 L 249.176,-62.7272 L 259.176,-62.7272 L 259.176,-65.9032  L 264.176,-65.9032 L 269.397,-66.2454 L 274.529,-67.2662 L 279.483,-68.948 L 284.176,-71.2622 L 288.526,-74.1691  L 292.46,-77.6189 L 295.91,-81.5527 L 298.817,-85.9032 L 301.131,-90.5959 L 302.813,-95.5504 L 303.834,-100.682  L 304.176,-105.903 L 304.176,-110.903 L 307.352,-110.903 L 307.352,-120.903 L 304.176,-120.903 L 304.176,-129.809  L 286.176,-129.809 L 286.176,-130.009 L 304.176,-130.009 L 304.176,-133.815 L 286.176,-133.815 L 286.176,-134.015  L 304.176,-134.015 L 304.176,-137.821 L 286.176,-137.821 L 286.176,-138.021 L 304.176,-138.021 L 304.176,-141.827  L 286.176,-141.827 L 286.176,-142.027 L 304.176,-142.027 L 304.176,-145.833 L 286.176,-145.833 L 286.176,-146.033  L 304.176,-146.033 L 304.176,-149.84 L 286.176,-149.84 L 286.176,-150.04 L 304.176,-150.04 L 304.176,-153.846  L 286.176,-153.846 L 286.176,-154.046 L 304.176,-154.046 L 304.176,-157.852 L 286.176,-157.852 L 286.176,-158.052  L 304.176,-158.052 L 304.176,-161.858 L 286.176,-161.858 L 286.176,-162.058 L 304.176,-162.058 L 304.176,-165.864  L 286.176,-165.864 L 286.176,-166.064 L 304.176,-166.064 L 304.176,-169.87 L 286.176,-169.87 L 286.176,-170.07  L 304.176,-170.07 L 304.176,-173.876 L 286.176,-173.876 L 286.176,-174.076 L 304.176,-174.076 L 304.176,-177.882  L 286.176,-177.882 L 286.176,-178.082 L 304.176,-178.082 L 304.176,-181.888 L 286.176,-181.888 L 286.176,-182.088  L 304.176,-182.088 L 304.176,-185.894 L 286.176,-185.894 L 286.176,-186.094 L 304.176,-186.094 L 304.176,-195  L 307.352,-195 L 307.352,-205 L 304.176,-205 L 304.176,-213.906 z M 262.176,-247.957 L 226.176,-247.957 L 226.176,-248.157 L 262.176,-248.157 z M 266.176,-271.994 L 266.176,-272.194 L 302.176,-272.194 L 302.176,-271.994 z M 226.176,-271.994 L 226.176,-272.194 L 262.176,-272.194 L 262.176,-271.994 z M 206.176,-269.991 L 206.176,-270.191 L 242.176,-270.191 L 242.176,-269.991 z M 246.176,-269.991 L 246.176,-270.191 L 282.176,-270.191 L 282.176,-269.991 z M 266.176,-267.988 L 266.176,-268.188 L 302.176,-268.188 L 302.176,-267.988 z M 226.176,-267.988 L 226.176,-268.188 L 262.176,-268.188 L 262.176,-267.988 z M 206.176,-265.985 L 206.176,-266.185 L 242.176,-266.185 L 242.176,-265.985 z M 226.176,-263.982 L 226.176,-264.182 L 262.176,-264.182 L 262.176,-263.982 z M 266.176,-263.982 L 266.176,-264.182 L 302.176,-264.182 L 302.176,-263.982 z M 266.176,-259.976 L 266.176,-260.176 L 302.176,-260.176 L 302.176,-259.976 z M 226.176,-259.976 L 226.176,-260.176 L 262.176,-260.176 L 262.176,-259.976 z M 206.176,-257.973 L 206.176,-258.173 L 242.176,-258.173 L 242.176,-257.973 z M 246.176,-257.973 L 246.176,-258.173 L 282.176,-258.173 L 282.176,-257.973 z M 266.176,-255.97 L 266.176,-256.17 L 302.176,-256.17 L 302.176,-255.97 z M 226.176,-255.97 L 226.176,-256.17 L 262.176,-256.17 L 262.176,-255.97 z M 206.176,-253.967 L 206.176,-254.167 L 242.176,-254.167 L 242.176,-253.967 z M 246.176,-253.967 L 246.176,-254.167 L 282.176,-254.167 L 282.176,-253.967 z M 226.176,-251.964 L 226.176,-252.164 L 262.176,-252.164 L 262.176,-251.964 z M 266.176,-251.964 L 266.176,-252.164 L 302.176,-252.164 L 302.176,-251.964 z M 206.176,-249.96 L 206.176,-250.16 L 242.176,-250.16 L 242.176,-249.96 z M 246.176,-249.96 L 246.176,-250.16 L 282.176,-250.16 L 282.176,-249.96 z M 266.176,-247.957 L 266.176,-248.157 L 302.176,-248.157 L 302.176,-247.957 z M 246.176,-245.954 L 246.176,-246.154 L 282.176,-246.154 L 282.176,-245.954 z M 206.176,-245.954 L 206.176,-246.154 L 242.176,-246.154 L 242.176,-245.954 z M 266.176,-243.951 L 266.176,-244.151 L 302.176,-244.151 L 302.176,-243.951 z M 266.176,-239.945 L 266.176,-240.145 L 302.176,-240.145 L 302.176,-239.945 z M 226.176,-239.945 L 226.176,-240.145 L 262.176,-240.145 L 262.176,-239.945 z M 246.176,-237.942 L 246.176,-238.142 L 282.176,-238.142 L 282.176,-237.942 z M 206.176,-237.942 L 206.176,-238.142 L 242.176,-238.142 L 242.176,-237.942 z M 266.176,-235.939 L 266.176,-236.139 L 302.176,-236.139 L 302.176,-235.939 z M 226.176,-235.939 L 226.176,-236.139 L 262.176,-236.139 L 262.176,-235.939 z M 246.176,-233.936 L 246.176,-234.136 L 282.176,-234.136 L 282.176,-233.936 z M 206.176,-233.936 L 206.176,-234.136 L 242.176,-234.136 L 242.176,-233.936 z M 226.176,-231.933 L 226.176,-232.133 L 262.176,-232.133 L 262.176,-231.933 z M 302.176,-231.933 L 266.176,-231.933 L 266.176,-232.133 L 302.176,-232.133 z M 246.176,-229.93 L 246.176,-230.13 L 282.176,-230.13 L 282.176,-229.93 z M 206.176,-229.93 L 206.176,-230.13 L 242.176,-230.13 L 242.176,-229.93 z M 266.176,-227.927 L 266.176,-228.127 L 302.176,-228.127 L 302.176,-227.927 z M 226.176,-227.927 L 226.176,-228.127 L 262.176,-228.127 L 262.176,-227.927 z M 206.176,-225.924 L 206.176,-226.124 L 242.176,-226.124 L 242.176,-225.924 z M 246.176,-225.924 L 246.176,-226.124 L 282.176,-226.124 L 282.176,-225.924 z M 226.176,-223.921 L 226.176,-224.121 L 262.176,-224.121 L 262.176,-223.921 z M 266.176,-223.921 L 266.176,-224.121 L 302.176,-224.121 L 302.176,-223.921 z M 206.176,-221.918 L 206.176,-222.118 L 242.176,-222.118 L 242.176,-221.918 z M 246.176,-221.918 L 246.176,-222.118 L 282.176,-222.118 L 282.176,-221.918 z M 226.176,-219.915 L 226.176,-220.115 L 262.176,-220.115 L 262.176,-219.915 z M 266.176,-219.915 L 266.176,-220.115 L 302.176,-220.115 L 302.176,-219.915 z M 246.176,-217.912 L 246.176,-218.112 L 282.176,-218.112 L 282.176,-217.912 z M 206.176,-217.912 L 206.176,-218.112 L 242.176,-218.112 L 242.176,-217.912 z M 226.176,-215.909 L 226.176,-216.109 L 262.176,-216.109 L 262.176,-215.909 z M 266.176,-215.909 L 266.176,-216.109 L 302.176,-216.109 L 302.176,-215.909 z M 246.176,-213.906 L 246.176,-214.106 L 282.176,-214.106 L 282.176,-213.906 z M 206.176,-213.906 L 206.176,-214.106 L 242.176,-214.106 L 242.176,-213.906 z M 226.176,-211.903 L 226.176,-212.103 L 262.176,-212.103 L 262.176,-211.903 z M 266.176,-211.903 L 266.176,-212.103 L 302.176,-212.103 L 302.176,-211.903 z M 266.176,-187.897 L 266.176,-188.097 L 302.176,-188.097 L 302.176,-187.897 z M 206.176,-185.894 L 206.176,-186.094 L 242.176,-186.094 L 242.176,-185.894 z M 282.176,-185.894 L 246.176,-185.894 L 246.176,-186.094 L 282.176,-186.094 z M 266.176,-183.891 L 266.176,-184.091 L 302.176,-184.091 L 302.176,-183.891 z M 226.176,-183.891 L 226.176,-184.091 L 262.176,-184.091 L 262.176,-183.891 z M 206.176,-181.888 L 206.176,-182.088 L 242.176,-182.088 L 242.176,-181.888 z M 246.176,-181.888 L 246.176,-182.088 L 282.176,-182.088 L 282.176,-181.888 z M 266.176,-179.885 L 266.176,-180.085 L 302.176,-180.085 L 302.176,-179.885 z M 206.176,-177.882 L 206.176,-178.082 L 242.176,-178.082 L 242.176,-177.882 z M 246.176,-177.882 L 246.176,-178.082 L 282.176,-178.082 L 282.176,-177.882 z M 226.176,-175.879 L 226.176,-176.079 L 262.176,-176.079 L 262.176,-175.879 z M 266.176,-175.879 L 266.176,-176.079 L 302.176,-176.079 L 302.176,-175.879 z M 246.176,-173.876 L 246.176,-174.076 L 282.176,-174.076 L 282.176,-173.876 z M 206.176,-173.876 L 206.176,-174.076 L 242.176,-174.076 L 242.176,-173.876 z M 266.176,-171.873 L 266.176,-172.073 L 302.176,-172.073 L 302.176,-171.873 z M 226.176,-171.873 L 226.176,-172.073 L 262.176,-172.073 L 262.176,-171.873 z M 206.176,-169.87 L 206.176,-170.07 L 242.176,-170.07 L 242.176,-169.87 z M 246.176,-169.87 L 246.176,-170.07 L 282.176,-170.07 L 282.176,-169.87 z M 226.176,-167.867 L 226.176,-168.067 L 262.176,-168.067 L 262.176,-167.867 z M 266.176,-167.867 L 266.176,-168.067 L 302.176,-168.067 L 302.176,-167.867 z M 246.176,-165.864 L 246.176,-166.064 L 282.176,-166.064 L 282.176,-165.864 z M 206.176,-165.864 L 206.176,-166.064 L 242.176,-166.064 L 242.176,-165.864 z M 226.176,-163.861 L 226.176,-164.061 L 262.176,-164.061 L 262.176,-163.861 z M 266.176,-163.861 L 266.176,-164.061 L 302.176,-164.061 L 302.176,-163.861 z M 206.176,-161.858 L 206.176,-162.058 L 242.176,-162.058 L 242.176,-161.858 z M 246.176,-161.858 L 246.176,-162.058 L 282.176,-162.058 L 282.176,-161.858 z M 226.176,-159.855 L 226.176,-160.055 L 262.176,-160.055 L 262.176,-159.855 z M 266.176,-159.855 L 266.176,-160.055 L 302.176,-160.055 L 302.176,-159.855 z M 206.176,-157.852 L 206.176,-158.052 L 242.176,-158.052 L 242.176,-157.852 z M 246.176,-157.852 L 246.176,-158.052 L 282.176,-158.052 L 282.176,-157.852 z M 266.176,-155.849 L 266.176,-156.049 L 302.176,-156.049 L 302.176,-155.849 z M 226.176,-155.849 L 226.176,-156.049 L 262.176,-156.049 L 262.176,-155.849 z M 206.176,-153.846 L 206.176,-154.046 L 242.176,-154.046 L 242.176,-153.846 z M 246.176,-153.846 L 246.176,-154.046 L 282.176,-154.046 L 282.176,-153.846 z M 266.176,-151.843 L 266.176,-152.043 L 302.176,-152.043 L 302.176,-151.843 z M 226.176,-151.843 L 226.176,-152.043 L 262.176,-152.043 L 262.176,-151.843 z M 206.176,-149.84 L 206.176,-150.04 L 242.176,-150.04 L 242.176,-149.84 z M 246.176,-149.84 L 246.176,-150.04 L 282.176,-150.04 L 282.176,-149.84 z M 226.176,-147.836 L 226.176,-148.036 L 262.176,-148.036 L 262.176,-147.836 z M 302.176,-147.836 L 266.176,-147.836 L 266.176,-148.036 L 302.176,-148.036 z M 246.176,-145.833 L 246.176,-146.033 L 282.176,-146.033 L 282.176,-145.833 z M 206.176,-145.833 L 206.176,-146.033 L 242.176,-146.033 L 242.176,-145.833 z M 226.176,-143.83 L 226.176,-144.03 L 262.176,-144.03 L 262.176,-143.83 z M 266.176,-143.83 L 266.176,-144.03 L 302.176,-144.03 L 302.176,-143.83 z M 206.176,-141.827 L 206.176,-142.027 L 242.176,-142.027 L 242.176,-141.827 z M 246.176,-141.827 L 246.176,-142.027 L 282.176,-142.027 L 282.176,-141.827 z M 266.176,-139.824 L 266.176,-140.024 L 302.176,-140.024 L 302.176,-139.824 z M 206.176,-137.821 L 206.176,-138.021 L 242.176,-138.021 L 242.176,-137.821 z M 246.176,-137.821 L 246.176,-138.021 L 282.176,-138.021 L 282.176,-137.821 z M 266.176,-135.818 L 266.176,-136.018 L 302.176,-136.018 L 302.176,-135.818 z M 226.176,-135.818 L 226.176,-136.018 L 262.176,-136.018 L 262.176,-135.818 z M 246.176,-133.815 L 246.176,-134.015 L 282.176,-134.015 L 282.176,-133.815 z M 206.176,-133.815 L 206.176,-134.015 L 242.176,-134.015 L 242.176,-133.815 z M 266.176,-131.812 L 266.176,-132.012 L 302.176,-132.012 L 302.176,-131.812 z M 226.176,-131.812 L 226.176,-132.012 L 262.176,-132.012 L 262.176,-131.812 z M 246.176,-129.809 L 246.176,-130.009 L 282.176,-130.009 L 282.176,-129.809 z M 206.176,-129.809 L 206.176,-130.009 L 242.176,-130.009 L 242.176,-129.809 z M 226.176,-127.806 L 226.176,-128.006 L 262.176,-128.006 L 262.176,-127.806 z M 266.176,-127.806 L 266.176,-128.006 L 302.176,-128.006 L 302.176,-127.806 z M 246.176,-265.985 L 246.176,-266.185 L 282.176,-266.185 L 282.176,-265.985 z M 206.176,-261.979 L 206.176,-262.179 L 242.176,-262.179 L 242.176,-261.979 z M 262.176,-243.951 L 226.176,-243.951 L 226.176,-244.151 L 262.176,-244.151 z M 262.176,-187.897 L 226.176,-187.897 L 226.176,-188.097 L 262.176,-188.097 z M 206.176,-241.948 L 206.176,-242.148 L 242.176,-242.148 L 242.176,-241.948 z M 262.176,-179.885 L 226.176,-179.885 L 226.176,-180.085 L 262.176,-180.085 z M 262.176,-139.824 L 226.176,-139.824 L 226.176,-140.024 L 262.176,-140.024 z M 195.824,-245.954 L 175.283,-245.954 L 175.283,-246.154 L 195.824,-246.154 L 195.824,-249.96 L 175.283,-249.96  L 175.283,-250.16 L 195.824,-250.16 L 195.824,-253.967 L 175.283,-253.967 L 175.283,-254.167 L 195.824,-254.167  L 195.824,-257.973 L 175.283,-257.973 L 175.283,-258.173 L 195.824,-258.173 L 195.824,-261.979 L 175.283,-261.979  L 175.283,-262.179 L 195.824,-262.179 L 195.824,-265.985 L 175.283,-265.985 L 175.283,-266.185 L 195.824,-266.185  L 195.824,-269.991 L 175.283,-269.991 L 175.283,-270.191 L 195.824,-270.191 L 195.824,-294.097 L 195.427,-300.147  L 194.245,-306.094 L 192.296,-311.835 L 189.614,-317.273 L 186.246,-322.314 L 182.248,-326.873 L 177.689,-330.87  L 172.648,-334.239 L 167.21,-336.92 L 161.469,-338.869 L 155.522,-340.052 L 149.472,-340.449 L 129.472,-340.449  L 123.422,-340.052 L 117.475,-338.869 L 111.734,-336.92 L 106.296,-334.239 L 101.255,-330.87 L 96.6962,-326.873  L 92.6985,-322.314 L 89.33,-317.273 L 86.6483,-311.835 L 84.6994,-306.094 L 83.5165,-300.147 L 83.12,-294.097  L 83.12,-272.194 L 103.661,-272.194 L 103.661,-271.994 L 83.12,-271.994 L 83.12,-268.188 L 103.661,-268.188  L 103.661,-267.988 L 83.12,-267.988 L 83.12,-264.182 L 103.661,-264.182 L 103.661,-263.982 L 83.12,-263.982  L 83.12,-260.176 L 103.661,-260.176 L 103.661,-259.976 L 83.12,-259.976 L 83.12,-256.17 L 103.661,-256.17  L 103.661,-255.97 L 83.12,-255.97 L 83.12,-252.164 L 103.661,-252.164 L 103.661,-251.964 L 83.12,-251.964  L 83.12,-248.157 L 103.661,-248.157 L 103.661,-247.957 L 83.12,-247.957 L 83.12,-244.151 L 103.661,-244.151  L 103.661,-243.951 L 83.12,-243.951 L 83.12,-240.145 L 103.661,-240.145 L 103.661,-239.945 L 83.12,-239.945  L 83.12,-236.139 L 103.661,-236.139 L 103.661,-235.939 L 83.12,-235.939 L 83.12,-232.133 L 103.661,-232.133  L 103.661,-231.933 L 83.12,-231.933 L 83.12,-228.127 L 103.661,-228.127 L 103.661,-227.927 L 83.12,-227.927  L 83.12,-224.121 L 103.661,-224.121 L 103.661,-223.921 L 83.12,-223.921 L 83.12,-220.115 L 103.661,-220.115  L 103.661,-219.915 L 83.12,-219.915 L 83.12,-216.109 L 103.661,-216.109 L 103.661,-215.909 L 83.12,-215.909  L 83.12,-212.103 L 103.661,-212.103 L 103.661,-211.903 L 83.12,-211.903 L 83.12,-188.097 L 103.661,-188.097  L 103.661,-187.897 L 83.12,-187.897 L 83.12,-184.091 L 103.661,-184.091 L 103.661,-183.891 L 83.12,-183.891  L 83.12,-180.085 L 103.661,-180.085 L 103.661,-179.885 L 83.12,-179.885 L 83.12,-176.079 L 103.661,-176.079  L 103.661,-175.879 L 83.12,-175.879 L 83.12,-172.073 L 103.661,-172.073 L 103.661,-171.873 L 83.12,-171.873  L 83.12,-168.067 L 103.661,-168.067 L 103.661,-167.867 L 83.12,-167.867 L 83.12,-164.061 L 103.661,-164.061  L 103.661,-163.861 L 83.12,-163.861 L 83.12,-160.055 L 103.661,-160.055 L 103.661,-159.855 L 83.12,-159.855  L 83.12,-156.049 L 103.661,-156.049 L 103.661,-155.849 L 83.12,-155.849 L 83.12,-152.043 L 103.661,-152.043  L 103.661,-151.843 L 83.12,-151.843 L 83.12,-148.036 L 103.661,-148.036 L 103.661,-147.836 L 83.12,-147.836  L 83.12,-144.03 L 103.661,-144.03 L 103.661,-143.83 L 83.12,-143.83 L 83.12,-140.024 L 103.661,-140.024  L 103.661,-139.824 L 83.12,-139.824 L 83.12,-136.018 L 103.661,-136.018 L 103.661,-135.818 L 83.12,-135.818  L 83.12,-132.012 L 103.661,-132.012 L 103.661,-131.812 L 83.12,-131.812 L 83.12,-128.006 L 103.661,-128.006  L 103.661,-127.806 L 83.12,-127.806 L 83.12,-105.903 L 83.5165,-99.853 L 84.6994,-93.9064 L 86.6483,-88.1651  L 89.33,-82.7272 L 92.6985,-77.6859 L 96.6962,-73.1274 L 101.255,-69.1297 L 106.296,-65.7612 L 111.734,-63.0795  L 117.475,-61.1306 L 123.422,-59.9477 L 129.472,-59.5512 L 149.472,-59.5512 L 155.522,-59.9477 L 161.469,-61.1306  L 167.21,-63.0795 L 172.648,-65.7612 L 177.689,-69.1297 L 182.248,-73.1274 L 186.246,-77.6859 L 189.614,-82.7272  L 192.296,-88.1651 L 194.245,-93.9064 L 195.427,-99.853 L 195.824,-105.903 L 195.824,-129.809 L 175.283,-129.809  L 175.283,-130.009 L 195.824,-130.009 L 195.824,-133.815 L 175.283,-133.815 L 175.283,-134.015 L 195.824,-134.015  L 195.824,-137.821 L 175.283,-137.821 L 175.283,-138.021 L 195.824,-138.021 L 195.824,-141.827 L 175.283,-141.827  L 175.283,-142.027 L 195.824,-142.027 L 195.824,-145.833 L 175.283,-145.833 L 175.283,-146.033 L 195.824,-146.033  L 195.824,-149.84 L 175.283,-149.84 L 175.283,-150.04 L 195.824,-150.04 L 195.824,-153.846 L 175.283,-153.846  L 175.283,-154.046 L 195.824,-154.046 L 195.824,-157.852 L 175.283,-157.852 L 175.283,-158.052 L 195.824,-158.052  L 195.824,-161.858 L 175.283,-161.858 L 175.283,-162.058 L 195.824,-162.058 L 195.824,-165.864 L 175.283,-165.864  L 175.283,-166.064 L 195.824,-166.064 L 195.824,-169.87 L 175.283,-169.87 L 175.283,-170.07 L 195.824,-170.07  L 195.824,-173.876 L 175.283,-173.876 L 175.283,-174.076 L 195.824,-174.076 L 195.824,-177.882 L 175.283,-177.882  L 175.283,-178.082 L 195.824,-178.082 L 195.824,-181.888 L 175.283,-181.888 L 175.283,-182.088 L 195.824,-182.088  L 195.824,-185.894 L 175.283,-185.894 L 175.283,-186.094 L 195.824,-186.094 L 195.824,-213.906 L 175.283,-213.906  L 175.283,-214.106 L 195.824,-214.106 L 195.824,-217.912 L 175.283,-217.912 L 175.283,-218.112 L 195.824,-218.112  L 195.824,-221.918 L 175.283,-221.918 L 175.283,-222.118 L 195.824,-222.118 L 195.824,-225.924 L 175.283,-225.924  L 175.283,-226.124 L 195.824,-226.124 L 195.824,-229.93 L 175.283,-229.93 L 175.283,-230.13 L 195.824,-230.13  L 195.824,-233.936 L 175.283,-233.936 L 175.283,-234.136 L 195.824,-234.136 L 195.824,-237.942 L 175.283,-237.942  L 175.283,-238.142 L 195.824,-238.142 L 195.824,-241.948 L 175.283,-241.948 L 175.283,-242.148 L 195.824,-242.148  z M 193.824,-231.933 L 152.742,-231.933 L 152.742,-232.133 L 193.824,-232.133 z M 134.472,-334.047 L 134.472,-337.323 L 144.472,-337.323 L 144.472,-334.047 z M 86.296,-279.097 L 86.296,-289.097 L 89.472,-289.097 L 89.472,-279.097 z M 189.472,-279.097 L 189.472,-289.097 L 192.648,-289.097 L 192.648,-279.097 z M 107.661,-271.994 L 107.661,-272.194 L 148.742,-272.194 L 148.742,-271.994 z M 152.742,-271.994 L 152.742,-272.194 L 193.824,-272.194 L 193.824,-271.994 z M 107.661,-267.988 L 107.661,-268.188 L 148.742,-268.188 L 148.742,-267.988 z M 193.824,-267.988 L 152.742,-267.988 L 152.742,-268.188 L 193.824,-268.188 z M 85.12,-265.985 L 85.12,-266.185 L 126.202,-266.185 L 126.202,-265.985 z M 130.202,-265.985 L 130.202,-266.185 L 171.283,-266.185 L 171.283,-265.985 z M 152.742,-263.982 L 152.742,-264.182 L 193.824,-264.182 L 193.824,-263.982 z M 107.661,-263.982 L 107.661,-264.182 L 148.742,-264.182 L 148.742,-263.982 z M 85.12,-261.979 L 85.12,-262.179 L 126.202,-262.179 L 126.202,-261.979 z M 130.202,-261.979 L 130.202,-262.179 L 171.283,-262.179 L 171.283,-261.979 z M 107.661,-259.976 L 107.661,-260.176 L 148.742,-260.176 L 148.742,-259.976 z M 193.824,-259.976 L 152.742,-259.976 L 152.742,-260.176 L 193.824,-260.176 z M 85.12,-257.973 L 85.12,-258.173 L 126.202,-258.173 L 126.202,-257.973 z M 130.202,-257.973 L 130.202,-258.173 L 171.283,-258.173 L 171.283,-257.973 z M 152.742,-255.97 L 152.742,-256.17 L 193.824,-256.17 L 193.824,-255.97 z M 107.661,-255.97 L 107.661,-256.17 L 148.742,-256.17 L 148.742,-255.97 z M 130.202,-253.967 L 130.202,-254.167 L 171.283,-254.167 L 171.283,-253.967 z M 85.12,-253.967 L 85.12,-254.167 L 126.202,-254.167 L 126.202,-253.967 z M 152.742,-251.964 L 152.742,-252.164 L 193.824,-252.164 L 193.824,-251.964 z M 107.661,-251.964 L 107.661,-252.164 L 148.742,-252.164 L 148.742,-251.964 z M 130.202,-249.96 L 130.202,-250.16 L 171.283,-250.16 L 171.283,-249.96 z M 85.12,-249.96 L 85.12,-250.16 L 126.202,-250.16 L 126.202,-249.96 z M 107.661,-247.957 L 107.661,-248.157 L 148.742,-248.157 L 148.742,-247.957 z M 152.742,-247.957 L 152.742,-248.157 L 193.824,-248.157 L 193.824,-247.957 z M 85.12,-245.954 L 85.12,-246.154 L 126.202,-246.154 L 126.202,-245.954 z M 130.202,-245.954 L 130.202,-246.154 L 171.283,-246.154 L 171.283,-245.954 z M 152.742,-243.951 L 152.742,-244.151 L 193.824,-244.151 L 193.824,-243.951 z M 107.661,-243.951 L 107.661,-244.151 L 148.742,-244.151 L 148.742,-243.951 z M 107.661,-239.945 L 107.661,-240.145 L 148.742,-240.145 L 148.742,-239.945 z M 152.742,-239.945 L 152.742,-240.145 L 193.824,-240.145 L 193.824,-239.945 z M 85.12,-237.942 L 85.12,-238.142 L 126.202,-238.142 L 126.202,-237.942 z M 130.202,-237.942 L 130.202,-238.142 L 171.283,-238.142 L 171.283,-237.942 z M 152.742,-235.939 L 152.742,-236.139 L 193.824,-236.139 L 193.824,-235.939 z M 107.661,-235.939 L 107.661,-236.139 L 148.742,-236.139 L 148.742,-235.939 z M 130.202,-233.936 L 130.202,-234.136 L 171.283,-234.136 L 171.283,-233.936 z M 85.12,-233.936 L 85.12,-234.136 L 126.202,-234.136 L 126.202,-233.936 z M 130.202,-229.93 L 130.202,-230.13 L 171.283,-230.13 L 171.283,-229.93 z M 85.12,-229.93 L 85.12,-230.13 L 126.202,-230.13 L 126.202,-229.93 z M 152.742,-227.927 L 152.742,-228.127 L 193.824,-228.127 L 193.824,-227.927 z M 130.202,-225.924 L 130.202,-226.124 L 171.283,-226.124 L 171.283,-225.924 z M 85.12,-225.924 L 85.12,-226.124 L 126.202,-226.124 L 126.202,-225.924 z M 152.742,-223.921 L 152.742,-224.121 L 193.824,-224.121 L 193.824,-223.921 z M 107.661,-223.921 L 107.661,-224.121 L 148.742,-224.121 L 148.742,-223.921 z M 130.202,-221.918 L 130.202,-222.118 L 171.283,-222.118 L 171.283,-221.918 z M 85.12,-221.918 L 85.12,-222.118 L 126.202,-222.118 L 126.202,-221.918 z M 107.661,-219.915 L 107.661,-220.115 L 148.742,-220.115 L 148.742,-219.915 z M 152.742,-219.915 L 152.742,-220.115 L 193.824,-220.115 L 193.824,-219.915 z M 85.12,-217.912 L 85.12,-218.112 L 126.202,-218.112 L 126.202,-217.912 z M 130.202,-217.912 L 130.202,-218.112 L 171.283,-218.112 L 171.283,-217.912 z M 152.742,-215.909 L 152.742,-216.109 L 193.824,-216.109 L 193.824,-215.909 z M 107.661,-215.909 L 107.661,-216.109 L 148.742,-216.109 L 148.742,-215.909 z M 130.202,-213.906 L 130.202,-214.106 L 171.283,-214.106 L 171.283,-213.906 z M 85.12,-213.906 L 85.12,-214.106 L 126.202,-214.106 L 126.202,-213.906 z M 86.296,-195 L 86.296,-205 L 89.472,-205 L 89.472,-195 z M 189.472,-195 L 189.472,-205 L 192.648,-205 L 192.648,-195 z M 107.661,-187.897 L 107.661,-188.097 L 148.742,-188.097 L 148.742,-187.897 z M 152.742,-187.897 L 152.742,-188.097 L 193.824,-188.097 L 193.824,-187.897 z M 130.202,-185.894 L 130.202,-186.094 L 171.283,-186.094 L 171.283,-185.894 z M 85.12,-185.894 L 85.12,-186.094 L 126.202,-186.094 L 126.202,-185.894 z M 152.742,-183.891 L 152.742,-184.091 L 193.824,-184.091 L 193.824,-183.891 z M 107.661,-183.891 L 107.661,-184.091 L 148.742,-184.091 L 148.742,-183.891 z M 130.202,-181.888 L 130.202,-182.088 L 171.283,-182.088 L 171.283,-181.888 z M 85.12,-181.888 L 85.12,-182.088 L 126.202,-182.088 L 126.202,-181.888 z M 152.742,-179.885 L 152.742,-180.085 L 193.824,-180.085 L 193.824,-179.885 z M 107.661,-179.885 L 107.661,-180.085 L 148.742,-180.085 L 148.742,-179.885 z M 130.202,-177.882 L 130.202,-178.082 L 171.283,-178.082 L 171.283,-177.882 z M 85.12,-177.882 L 85.12,-178.082 L 126.202,-178.082 L 126.202,-177.882 z M 152.742,-175.879 L 152.742,-176.079 L 193.824,-176.079 L 193.824,-175.879 z M 107.661,-175.879 L 107.661,-176.079 L 148.742,-176.079 L 148.742,-175.879 z M 85.12,-173.876 L 85.12,-174.076 L 126.202,-174.076 L 126.202,-173.876 z M 130.202,-173.876 L 130.202,-174.076 L 171.283,-174.076 L 171.283,-173.876 z M 107.661,-171.873 L 107.661,-172.073 L 148.742,-172.073 L 148.742,-171.873 z M 152.742,-171.873 L 152.742,-172.073 L 193.824,-172.073 L 193.824,-171.873 z M 85.12,-169.87 L 85.12,-170.07 L 126.202,-170.07 L 126.202,-169.87 z M 171.283,-169.87 L 130.202,-169.87 L 130.202,-170.07 L 171.283,-170.07 z M 152.742,-167.867 L 152.742,-168.067 L 193.824,-168.067 L 193.824,-167.867 z M 107.661,-167.867 L 107.661,-168.067 L 148.742,-168.067 L 148.742,-167.867 z M 85.12,-165.864 L 85.12,-166.064 L 126.202,-166.064 L 126.202,-165.864 z M 130.202,-165.864 L 130.202,-166.064 L 171.283,-166.064 L 171.283,-165.864 z M 152.742,-163.861 L 152.742,-164.061 L 193.824,-164.061 L 193.824,-163.861 z M 85.12,-161.858 L 85.12,-162.058 L 126.202,-162.058 L 126.202,-161.858 z M 130.202,-161.858 L 130.202,-162.058 L 171.283,-162.058 L 171.283,-161.858 z M 107.661,-159.855 L 107.661,-160.055 L 148.742,-160.055 L 148.742,-159.855 z M 193.824,-159.855 L 152.742,-159.855 L 152.742,-160.055 L 193.824,-160.055 z M 85.12,-157.852 L 85.12,-158.052 L 126.202,-158.052 L 126.202,-157.852 z M 171.283,-157.852 L 130.202,-157.852 L 130.202,-158.052 L 171.283,-158.052 z M 152.742,-155.849 L 152.742,-156.049 L 193.824,-156.049 L 193.824,-155.849 z M 107.661,-155.849 L 107.661,-156.049 L 148.742,-156.049 L 148.742,-155.849 z M 130.202,-153.846 L 130.202,-154.046 L 171.283,-154.046 L 171.283,-153.846 z M 85.12,-153.846 L 85.12,-154.046 L 126.202,-154.046 L 126.202,-153.846 z M 152.742,-151.843 L 152.742,-152.043 L 193.824,-152.043 L 193.824,-151.843 z M 107.661,-151.843 L 107.661,-152.043 L 148.742,-152.043 L 148.742,-151.843 z M 85.12,-149.84 L 85.12,-150.04 L 126.202,-150.04 L 126.202,-149.84 z M 130.202,-149.84 L 130.202,-150.04 L 171.283,-150.04 L 171.283,-149.84 z M 107.661,-147.836 L 107.661,-148.036 L 148.742,-148.036 L 148.742,-147.836 z M 152.742,-147.836 L 152.742,-148.036 L 193.824,-148.036 L 193.824,-147.836 z M 85.12,-145.833 L 85.12,-146.033 L 126.202,-146.033 L 126.202,-145.833 z M 130.202,-145.833 L 130.202,-146.033 L 171.283,-146.033 L 171.283,-145.833 z M 152.742,-143.83 L 152.742,-144.03 L 193.824,-144.03 L 193.824,-143.83 z M 130.202,-141.827 L 130.202,-142.027 L 171.283,-142.027 L 171.283,-141.827 z M 85.12,-141.827 L 85.12,-142.027 L 126.202,-142.027 L 126.202,-141.827 z M 152.742,-139.824 L 152.742,-140.024 L 193.824,-140.024 L 193.824,-139.824 z M 85.12,-137.821 L 85.12,-138.021 L 126.202,-138.021 L 126.202,-137.821 z M 130.202,-137.821 L 130.202,-138.021 L 171.283,-138.021 L 171.283,-137.821 z M 107.661,-135.818 L 107.661,-136.018 L 148.742,-136.018 L 148.742,-135.818 z M 152.742,-135.818 L 152.742,-136.018 L 193.824,-136.018 L 193.824,-135.818 z M 85.12,-133.815 L 85.12,-134.015 L 126.202,-134.015 L 126.202,-133.815 z M 130.202,-133.815 L 130.202,-134.015 L 171.283,-134.015 L 171.283,-133.815 z M 152.742,-131.812 L 152.742,-132.012 L 193.824,-132.012 L 193.824,-131.812 z M 107.661,-131.812 L 107.661,-132.012 L 148.742,-132.012 L 148.742,-131.812 z M 85.12,-129.809 L 85.12,-130.009 L 126.202,-130.009 L 126.202,-129.809 z M 130.202,-129.809 L 130.202,-130.009 L 171.283,-130.009 L 171.283,-129.809 z M 107.661,-127.806 L 107.661,-128.006 L 148.742,-128.006 L 148.742,-127.806 z M 152.742,-127.806 L 152.742,-128.006 L 193.824,-128.006 L 193.824,-127.806 z M 86.296,-110.903 L 86.296,-120.903 L 89.472,-120.903 L 89.472,-110.903 z M 189.472,-110.903 L 189.472,-120.903 L 192.648,-120.903 L 192.648,-110.903 z M 134.472,-62.6772 L 134.472,-65.9532 L 144.472,-65.9532 L 144.472,-62.6772 z M 171.283,-269.991 L 130.202,-269.991 L 130.202,-270.191 L 171.283,-270.191 z M 85.12,-269.991 L 85.12,-270.191 L 126.202,-270.191 L 126.202,-269.991 z M 171.283,-241.948 L 130.202,-241.948 L 130.202,-242.148 L 171.283,-242.148 z M 85.12,-241.948 L 85.12,-242.148 L 126.202,-242.148 L 126.202,-241.948 z M 148.742,-227.927 L 107.661,-227.927 L 107.661,-228.127 L 148.742,-228.127 z M 148.742,-231.933 L 107.661,-231.933 L 107.661,-232.133 L 148.742,-232.133 z M 193.824,-211.903 L 152.742,-211.903 L 152.742,-212.103 L 193.824,-212.103 z M 148.742,-163.861 L 107.661,-163.861 L 107.661,-164.061 L 148.742,-164.061 z M 148.742,-211.903 L 107.661,-211.903 L 107.661,-212.103 L 148.742,-212.103 z M 148.742,-143.83 L 107.661,-143.83 L 107.661,-144.03 L 148.742,-144.03 z M 148.742,-139.824 L 107.661,-139.824 L 107.661,-140.024 L 148.742,-140.024 z "
     stroke="black"
     fill="lightgray"
     stroke-width="0.5"
     id="path6"
     style="fill:none;stroke-width:0.35277778;stroke-miterlimit:4;stroke-dasharray:none" />
</svg>
