<?xml version="1.0" encoding="UTF-8" standalone="no"?>
<svg
   xmlns:dc="http://purl.org/dc/elements/1.1/"
   xmlns:cc="http://creativecommons.org/ns#"
   xmlns:rdf="http://www.w3.org/1999/02/22-rdf-syntax-ns#"
   xmlns:svg="http://www.w3.org/2000/svg"
   xmlns="http://www.w3.org/2000/svg"
   xmlns:sodipodi="http://sodipodi.sourceforge.net/DTD/sodipodi-0.dtd"
   xmlns:inkscape="http://www.inkscape.org/namespaces/inkscape"
   width="305mm"
   height="398mm"
   viewBox="123 -479 305 398"
   version="1.1"
   id="svg2"
   inkscape:version="0.91 r13725"
   sodipodi:docname="FlexBox.svg">
  <sodipodi:namedview
     pagecolor="#ffffff"
     bordercolor="#666666"
     borderopacity="1"
     objecttolerance="10"
     gridtolerance="10"
     guidetolerance="10"
     inkscape:pageopacity="0"
     inkscape:pageshadow="2"
     inkscape:window-width="837"
     inkscape:window-height="1030"
     id="namedview8"
     showgrid="false"
     inkscape:document-units="mm"
     inkscape:zoom="0.9466624"
     inkscape:cx="234.48558"
     inkscape:cy="88.972471"
     inkscape:window-x="1713"
     inkscape:window-y="40"
     inkscape:window-maximized="0"
     inkscape:current-layer="svg2" />
  <metadata
     id="metadata12">
    <rdf:RDF>
      <cc:Work
         rdf:about="">
        <dc:format>image/svg+xml</dc:format>
        <dc:type
           rdf:resource="http://purl.org/dc/dcmitype/StillImage" />
        <dc:title>OpenSCAD Model</dc:title>
      </cc:Work>
    </rdf:RDF>
  </metadata>
  <defs
     id="defs10" />
  <title
     id="title4">OpenSCAD Model</title>
  <path
     style="fill:none;stroke-width:0.35277779;stroke-miterlimit:4;stroke-dasharray:none"
     id="path6"
     stroke-width="0.5"
     fill="lightgray"
     stroke="black"
     d=" M 275.82,-206.827 L 256.003,-206.827 L 256.003,-207.027 L 275.82,-207.027 L 275.82,-210.833 L 256.003,-210.833  L 256.003,-211.033 L 275.82,-211.033 L 275.82,-214.84 L 256.003,-214.84 L 256.003,-215.04 L 275.82,-215.04  L 275.82,-218.846 L 256.003,-218.846 L 256.003,-219.046 L 275.82,-219.046 L 275.82,-222.852 L 256.003,-222.852  L 256.003,-223.052 L 275.82,-223.052 L 275.82,-226.858 L 256.003,-226.858 L 256.003,-227.058 L 252.003,-227.058  L 252.003,-226.858 L 212.369,-226.858 L 212.369,-227.058 L 275.82,-227.058 L 275.82,-230.864 L 256.003,-230.864  L 256.003,-231.064 L 275.82,-231.064 L 275.82,-234.87 L 256.003,-234.87 L 256.003,-235.07 L 275.82,-235.07  L 275.82,-238.876 L 256.003,-238.876 L 256.003,-239.076 L 275.82,-239.076 L 275.82,-242.882 L 256.003,-242.882  L 256.003,-243.082 L 275.82,-243.082 L 275.82,-246.888 L 256.003,-246.888 L 256.003,-247.088 L 275.82,-247.088  L 275.82,-250.894 L 256.003,-250.894 L 256.003,-251.094 L 275.82,-251.094 L 275.82,-308.906 L 256.003,-308.906  L 256.003,-309.106 L 275.82,-309.106 L 275.82,-312.912 L 256.003,-312.912 L 256.003,-313.112 L 275.82,-313.112  L 275.82,-316.918 L 256.003,-316.918 L 256.003,-317.118 L 275.82,-317.118 L 275.82,-320.924 L 256.003,-320.924  L 256.003,-321.124 L 275.82,-321.124 L 275.82,-324.93 L 256.003,-324.93 L 256.003,-325.13 L 275.82,-325.13  L 275.82,-328.936 L 256.003,-328.936 L 256.003,-329.136 L 275.82,-329.136 L 275.82,-332.942 L 256.003,-332.942  L 256.003,-333.142 L 275.82,-333.142 L 275.82,-336.948 L 256.003,-336.948 L 256.003,-337.148 L 275.82,-337.148  L 275.82,-340.954 L 256.003,-340.954 L 256.003,-341.154 L 275.82,-341.154 L 275.82,-344.961 L 256.003,-344.961  L 256.003,-345.16 L 275.82,-345.16 L 275.82,-348.967 L 256.003,-348.967 L 256.003,-349.167 L 275.82,-349.167  L 275.82,-352.973 L 256.003,-352.973 L 256.003,-353.173 L 275.82,-353.173 L 275.82,-356.979 L 256.003,-356.979  L 256.003,-357.179 L 275.82,-357.179 L 275.82,-360.985 L 256.003,-360.985 L 256.003,-361.185 L 275.82,-361.185  L 275.82,-364.991 L 256.003,-364.991 L 256.003,-365.191 L 275.82,-365.191 L 275.82,-368.997 L 256.003,-368.997  L 256.003,-369.197 L 275.82,-369.197 L 275.82,-373.003 L 256.003,-373.003 L 256.003,-373.203 L 275.82,-373.203  L 275.82,-427.109 L 275.381,-433.813 L 274.07,-440.402 L 271.91,-446.764 L 268.939,-452.789 L 265.207,-458.375  L 260.777,-463.426 L 255.726,-467.856 L 250.14,-471.588 L 244.115,-474.559 L 237.753,-476.719 L 231.164,-478.03  L 224.46,-478.469 L 174.46,-478.469 L 167.756,-478.03 L 161.167,-476.719 L 154.805,-474.559 L 148.78,-471.588  L 143.194,-467.856 L 138.143,-463.426 L 133.713,-458.375 L 129.981,-452.789 L 127.01,-446.764 L 124.85,-440.402  L 123.539,-433.813 L 123.1,-427.109 L 123.1,-375.206 L 142.917,-375.206 L 142.917,-375.006 L 123.1,-375.006  L 123.1,-371.2 L 142.917,-371.2 L 142.917,-371 L 123.1,-371 L 123.1,-367.194 L 142.917,-367.194  L 142.917,-366.994 L 123.1,-366.994 L 123.1,-363.188 L 142.917,-363.188 L 142.917,-362.988 L 123.1,-362.988  L 123.1,-359.182 L 142.917,-359.182 L 142.917,-358.982 L 123.1,-358.982 L 123.1,-355.176 L 142.917,-355.176  L 142.917,-354.976 L 123.1,-354.976 L 123.1,-351.17 L 142.917,-351.17 L 142.917,-350.97 L 123.1,-350.97  L 123.1,-347.164 L 142.917,-347.164 L 142.917,-346.964 L 123.1,-346.964 L 123.1,-343.157 L 142.917,-343.157  L 142.917,-342.957 L 123.1,-342.957 L 123.1,-339.151 L 142.917,-339.151 L 142.917,-338.951 L 123.1,-338.951  L 123.1,-335.145 L 142.917,-335.145 L 142.917,-334.945 L 123.1,-334.945 L 123.1,-331.139 L 142.917,-331.139  L 142.917,-330.939 L 123.1,-330.939 L 123.1,-327.133 L 142.917,-327.133 L 142.917,-326.933 L 123.1,-326.933  L 123.1,-323.127 L 142.917,-323.127 L 142.917,-322.927 L 123.1,-322.927 L 123.1,-319.121 L 142.917,-319.121  L 142.917,-318.921 L 123.1,-318.921 L 123.1,-315.115 L 142.917,-315.115 L 142.917,-314.915 L 123.1,-314.915  L 123.1,-311.109 L 142.917,-311.109 L 142.917,-310.909 L 123.1,-310.909 L 123.1,-307.103 L 142.917,-307.103  L 142.917,-306.903 L 123.1,-306.903 L 123.1,-253.097 L 186.551,-253.097 L 186.551,-252.897 L 146.917,-252.897  L 146.917,-253.097 L 142.917,-253.097 L 142.917,-252.897 L 123.1,-252.897 L 123.1,-249.091 L 142.917,-249.091  L 142.917,-248.891 L 123.1,-248.891 L 123.1,-245.085 L 142.917,-245.085 L 142.917,-244.885 L 123.1,-244.885  L 123.1,-241.079 L 142.917,-241.079 L 142.917,-240.879 L 123.1,-240.879 L 123.1,-237.073 L 142.917,-237.073  L 142.917,-236.873 L 123.1,-236.873 L 123.1,-233.067 L 142.917,-233.067 L 142.917,-232.867 L 123.1,-232.867  L 123.1,-229.061 L 142.917,-229.061 L 142.917,-228.861 L 123.1,-228.861 L 123.1,-225.055 L 142.917,-225.055  L 142.917,-224.855 L 123.1,-224.855 L 123.1,-221.049 L 142.917,-221.049 L 142.917,-220.849 L 123.1,-220.849  L 123.1,-217.043 L 142.917,-217.043 L 142.917,-216.843 L 123.1,-216.843 L 123.1,-213.036 L 142.917,-213.036  L 142.917,-212.836 L 123.1,-212.836 L 123.1,-209.03 L 186.551,-209.03 L 186.551,-208.83 L 146.917,-208.83  L 146.917,-209.03 L 142.917,-209.03 L 142.917,-208.83 L 123.1,-208.83 L 123.1,-205.024 L 142.917,-205.024  L 142.917,-204.824 L 123.1,-204.824 L 123.1,-201.018 L 142.917,-201.018 L 142.917,-200.818 L 123.1,-200.818  L 123.1,-197.012 L 142.917,-197.012 L 142.917,-196.812 L 123.1,-196.812 L 123.1,-193.006 L 142.917,-193.006  L 142.917,-192.806 L 123.1,-192.806 L 123.1,-189 L 142.917,-189 L 142.917,-188.8 L 123.1,-188.8  L 123.1,-184.994 L 142.917,-184.994 L 142.917,-184.794 L 123.1,-184.794 L 123.1,-132.891 L 123.539,-126.187  L 124.85,-119.598 L 127.01,-113.236 L 129.981,-107.211 L 133.713,-101.625 L 138.143,-96.5741 L 143.194,-92.1445  L 148.78,-88.412 L 154.805,-85.4406 L 161.167,-83.2811 L 167.756,-81.9705 L 174.46,-81.5311 L 224.46,-81.5311  L 231.164,-81.9705 L 237.753,-83.2811 L 244.115,-85.4406 L 250.14,-88.412 L 255.726,-92.1445 L 260.777,-96.5741  L 265.207,-101.625 L 268.939,-107.211 L 271.91,-113.236 L 274.07,-119.598 L 275.381,-126.187 L 275.82,-132.891  L 275.82,-186.797 L 256.003,-186.797 L 256.003,-186.997 L 275.82,-186.997 L 275.82,-190.803 L 256.003,-190.803  L 256.003,-191.003 L 275.82,-191.003 L 275.82,-194.809 L 256.003,-194.809 L 256.003,-195.009 L 275.82,-195.009  L 275.82,-198.815 L 256.003,-198.815 L 256.003,-199.015 L 275.82,-199.015 L 275.82,-202.821 L 256.003,-202.821  L 256.003,-203.021 L 275.82,-203.021 z M 129.46,-417.109 L 126.28,-417.109 L 126.28,-427.109 L 129.46,-427.109 z M 174.46,-472.059 L 174.46,-475.339 L 184.46,-475.339 L 184.46,-472.059 z M 214.46,-472.059 L 214.46,-475.339 L 224.46,-475.339 L 224.46,-472.059 z M 194.46,-472.059 L 194.46,-475.339 L 204.46,-475.339 L 204.46,-472.059 z M 269.46,-417.109 L 269.46,-427.109 L 272.64,-427.109 L 272.64,-417.109 z M 269.46,-397.109 L 269.46,-407.109 L 272.64,-407.109 L 272.64,-397.109 z M 126.28,-397.109 L 126.28,-407.109 L 129.46,-407.109 L 129.46,-397.109 z M 269.46,-377.109 L 269.46,-387.109 L 272.64,-387.109 L 272.64,-377.109 z M 126.28,-377.109 L 126.28,-387.109 L 129.46,-387.109 L 129.46,-377.109 z M 234.186,-375.006 L 234.186,-375.206 L 273.82,-375.206 L 273.82,-375.006 z M 190.551,-375.006 L 190.551,-375.206 L 230.186,-375.206 L 230.186,-375.006 z M 146.917,-375.006 L 146.917,-375.206 L 186.551,-375.206 L 186.551,-375.006 z M 168.734,-373.003 L 168.734,-373.203 L 208.369,-373.203 L 208.369,-373.003 z M 125.1,-373.003 L 125.1,-373.203 L 164.734,-373.203 L 164.734,-373.003 z M 212.369,-373.003 L 212.369,-373.203 L 252.003,-373.203 L 252.003,-373.003 z M 146.917,-371 L 146.917,-371.2 L 186.551,-371.2 L 186.551,-371 z M 234.186,-371 L 234.186,-371.2 L 273.82,-371.2 L 273.82,-371 z M 190.551,-371 L 190.551,-371.2 L 230.186,-371.2 L 230.186,-371 z M 125.1,-368.997 L 125.1,-369.197 L 164.734,-369.197 L 164.734,-368.997 z M 168.734,-368.997 L 168.734,-369.197 L 208.369,-369.197 L 208.369,-368.997 z M 212.369,-368.997 L 212.369,-369.197 L 252.003,-369.197 L 252.003,-368.997 z M 234.186,-366.994 L 234.186,-367.194 L 273.82,-367.194 L 273.82,-366.994 z M 190.551,-366.994 L 190.551,-367.194 L 230.186,-367.194 L 230.186,-366.994 z M 146.917,-366.994 L 146.917,-367.194 L 186.551,-367.194 L 186.551,-366.994 z M 168.734,-364.991 L 168.734,-365.191 L 208.369,-365.191 L 208.369,-364.991 z M 125.1,-364.991 L 125.1,-365.191 L 164.734,-365.191 L 164.734,-364.991 z M 146.917,-362.988 L 146.917,-363.188 L 186.551,-363.188 L 186.551,-362.988 z M 234.186,-362.988 L 234.186,-363.188 L 273.82,-363.188 L 273.82,-362.988 z M 190.551,-362.988 L 190.551,-363.188 L 230.186,-363.188 L 230.186,-362.988 z M 125.1,-360.985 L 125.1,-361.185 L 164.734,-361.185 L 164.734,-360.985 z M 168.734,-360.985 L 168.734,-361.185 L 208.369,-361.185 L 208.369,-360.985 z M 212.369,-360.985 L 212.369,-361.185 L 252.003,-361.185 L 252.003,-360.985 z M 234.186,-358.982 L 234.186,-359.182 L 273.82,-359.182 L 273.82,-358.982 z M 190.551,-358.982 L 190.551,-359.182 L 230.186,-359.182 L 230.186,-358.982 z M 212.369,-356.979 L 212.369,-357.179 L 252.003,-357.179 L 252.003,-356.979 z M 168.734,-356.979 L 168.734,-357.179 L 208.369,-357.179 L 208.369,-356.979 z M 125.1,-356.979 L 125.1,-357.179 L 164.734,-357.179 L 164.734,-356.979 z M 190.551,-354.976 L 190.551,-355.176 L 230.186,-355.176 L 230.186,-354.976 z M 146.917,-354.976 L 146.917,-355.176 L 186.551,-355.176 L 186.551,-354.976 z M 234.186,-354.976 L 234.186,-355.176 L 273.82,-355.176 L 273.82,-354.976 z M 125.1,-352.973 L 125.1,-353.173 L 164.734,-353.173 L 164.734,-352.973 z M 208.369,-352.973 L 168.734,-352.973 L 168.734,-353.173 L 208.369,-353.173 z M 252.003,-352.973 L 212.369,-352.973 L 212.369,-353.173 L 252.003,-353.173 z M 146.917,-350.97 L 146.917,-351.17 L 186.551,-351.17 L 186.551,-350.97 z M 190.551,-350.97 L 190.551,-351.17 L 230.186,-351.17 L 230.186,-350.97 z M 234.186,-350.97 L 234.186,-351.17 L 273.82,-351.17 L 273.82,-350.97 z M 212.369,-348.967 L 212.369,-349.167 L 252.003,-349.167 L 252.003,-348.967 z M 168.734,-348.967 L 168.734,-349.167 L 208.369,-349.167 L 208.369,-348.967 z M 125.1,-348.967 L 125.1,-349.167 L 164.734,-349.167 L 164.734,-348.967 z M 146.917,-346.964 L 146.917,-347.164 L 186.551,-347.164 L 186.551,-346.964 z M 234.186,-346.964 L 234.186,-347.164 L 273.82,-347.164 L 273.82,-346.964 z M 190.551,-346.964 L 190.551,-347.164 L 230.186,-347.164 L 230.186,-346.964 z M 168.734,-344.961 L 168.734,-345.16 L 208.369,-345.16 L 208.369,-344.961 z M 125.1,-344.961 L 125.1,-345.16 L 164.734,-345.16 L 164.734,-344.961 z M 146.917,-342.957 L 146.917,-343.157 L 186.551,-343.157 L 186.551,-342.957 z M 190.551,-342.957 L 190.551,-343.157 L 230.186,-343.157 L 230.186,-342.957 z M 234.186,-342.957 L 234.186,-343.157 L 273.82,-343.157 L 273.82,-342.957 z M 212.369,-340.954 L 212.369,-341.154 L 252.003,-341.154 L 252.003,-340.954 z M 168.734,-340.954 L 168.734,-341.154 L 208.369,-341.154 L 208.369,-340.954 z M 125.1,-340.954 L 125.1,-341.154 L 164.734,-341.154 L 164.734,-340.954 z M 190.551,-338.951 L 190.551,-339.151 L 230.186,-339.151 L 230.186,-338.951 z M 234.186,-338.951 L 234.186,-339.151 L 273.82,-339.151 L 273.82,-338.951 z M 146.917,-338.951 L 146.917,-339.151 L 186.551,-339.151 L 186.551,-338.951 z M 168.734,-336.948 L 168.734,-337.148 L 208.369,-337.148 L 208.369,-336.948 z M 212.369,-336.948 L 212.369,-337.148 L 252.003,-337.148 L 252.003,-336.948 z M 125.1,-336.948 L 125.1,-337.148 L 164.734,-337.148 L 164.734,-336.948 z M 146.917,-334.945 L 146.917,-335.145 L 186.551,-335.145 L 186.551,-334.945 z M 190.551,-334.945 L 190.551,-335.145 L 230.186,-335.145 L 230.186,-334.945 z M 273.82,-334.945 L 234.186,-334.945 L 234.186,-335.145 L 273.82,-335.145 z M 125.1,-332.942 L 125.1,-333.142 L 164.734,-333.142 L 164.734,-332.942 z M 212.369,-332.942 L 212.369,-333.142 L 252.003,-333.142 L 252.003,-332.942 z M 168.734,-332.942 L 168.734,-333.142 L 208.369,-333.142 L 208.369,-332.942 z M 190.551,-330.939 L 190.551,-331.139 L 230.186,-331.139 L 230.186,-330.939 z M 273.82,-330.939 L 234.186,-330.939 L 234.186,-331.139 L 273.82,-331.139 z M 125.1,-328.936 L 125.1,-329.136 L 164.734,-329.136 L 164.734,-328.936 z M 168.734,-328.936 L 168.734,-329.136 L 208.369,-329.136 L 208.369,-328.936 z M 212.369,-328.936 L 212.369,-329.136 L 252.003,-329.136 L 252.003,-328.936 z M 190.551,-326.933 L 190.551,-327.133 L 230.186,-327.133 L 230.186,-326.933 z M 234.186,-326.933 L 234.186,-327.133 L 273.82,-327.133 L 273.82,-326.933 z M 125.1,-324.93 L 125.1,-325.13 L 164.734,-325.13 L 164.734,-324.93 z M 212.369,-324.93 L 212.369,-325.13 L 252.003,-325.13 L 252.003,-324.93 z M 168.734,-324.93 L 168.734,-325.13 L 208.369,-325.13 L 208.369,-324.93 z M 234.186,-322.927 L 234.186,-323.127 L 273.82,-323.127 L 273.82,-322.927 z M 125.1,-320.924 L 125.1,-321.124 L 164.734,-321.124 L 164.734,-320.924 z M 212.369,-320.924 L 212.369,-321.124 L 252.003,-321.124 L 252.003,-320.924 z M 208.369,-320.924 L 168.734,-320.924 L 168.734,-321.124 L 208.369,-321.124 z M 234.186,-318.921 L 234.186,-319.121 L 273.82,-319.121 L 273.82,-318.921 z M 146.917,-318.921 L 146.917,-319.121 L 186.551,-319.121 L 186.551,-318.921 z M 190.551,-318.921 L 190.551,-319.121 L 230.186,-319.121 L 230.186,-318.921 z M 212.369,-316.918 L 212.369,-317.118 L 252.003,-317.118 L 252.003,-316.918 z M 168.734,-316.918 L 168.734,-317.118 L 208.369,-317.118 L 208.369,-316.918 z M 125.1,-316.918 L 125.1,-317.118 L 164.734,-317.118 L 164.734,-316.918 z M 146.917,-314.915 L 146.917,-315.115 L 186.551,-315.115 L 186.551,-314.915 z M 234.186,-314.915 L 234.186,-315.115 L 273.82,-315.115 L 273.82,-314.915 z M 190.551,-314.915 L 190.551,-315.115 L 230.186,-315.115 L 230.186,-314.915 z M 125.1,-312.912 L 125.1,-313.112 L 164.734,-313.112 L 164.734,-312.912 z M 168.734,-312.912 L 168.734,-313.112 L 208.369,-313.112 L 208.369,-312.912 z M 190.551,-310.909 L 190.551,-311.109 L 230.186,-311.109 L 230.186,-310.909 z M 146.917,-310.909 L 146.917,-311.109 L 186.551,-311.109 L 186.551,-310.909 z M 234.186,-310.909 L 234.186,-311.109 L 273.82,-311.109 L 273.82,-310.909 z M 168.734,-308.906 L 168.734,-309.106 L 208.369,-309.106 L 208.369,-308.906 z M 212.369,-308.906 L 212.369,-309.106 L 252.003,-309.106 L 252.003,-308.906 z M 125.1,-308.906 L 125.1,-309.106 L 164.734,-309.106 L 164.734,-308.906 z M 146.917,-306.903 L 146.917,-307.103 L 186.551,-307.103 L 186.551,-306.903 z M 234.186,-306.903 L 234.186,-307.103 L 273.82,-307.103 L 273.82,-306.903 z M 190.551,-306.903 L 190.551,-307.103 L 230.186,-307.103 L 230.186,-306.903 z M 269.46,-295 L 269.46,-305 L 272.64,-305 L 272.64,-295 z M 126.28,-295 L 126.28,-305 L 129.46,-305 L 129.46,-295 z M 126.28,-275 L 126.28,-285 L 129.46,-285 L 129.46,-275 z M 269.46,-275 L 269.46,-285 L 272.64,-285 L 272.64,-275 z M 269.46,-255 L 269.46,-265 L 272.64,-265 L 272.64,-255 z M 126.28,-255 L 126.28,-265 L 129.46,-265 L 129.46,-255 z M 234.186,-252.897 L 234.186,-253.097 L 273.82,-253.097 L 273.82,-252.897 z M 168.734,-250.894 L 168.734,-251.094 L 208.369,-251.094 L 208.369,-250.894 z M 212.369,-250.894 L 212.369,-251.094 L 252.003,-251.094 L 252.003,-250.894 z M 125.1,-250.894 L 125.1,-251.094 L 164.734,-251.094 L 164.734,-250.894 z M 234.186,-248.891 L 234.186,-249.091 L 273.82,-249.091 L 273.82,-248.891 z M 190.551,-248.891 L 190.551,-249.091 L 230.186,-249.091 L 230.186,-248.891 z M 146.917,-248.891 L 146.917,-249.091 L 186.551,-249.091 L 186.551,-248.891 z M 125.1,-246.888 L 125.1,-247.088 L 164.734,-247.088 L 164.734,-246.888 z M 168.734,-246.888 L 168.734,-247.088 L 208.369,-247.088 L 208.369,-246.888 z M 212.369,-246.888 L 212.369,-247.088 L 252.003,-247.088 L 252.003,-246.888 z M 146.917,-244.885 L 146.917,-245.085 L 186.551,-245.085 L 186.551,-244.885 z M 190.551,-244.885 L 190.551,-245.085 L 230.186,-245.085 L 230.186,-244.885 z M 234.186,-244.885 L 234.186,-245.085 L 273.82,-245.085 L 273.82,-244.885 z M 212.369,-242.882 L 212.369,-243.082 L 252.003,-243.082 L 252.003,-242.882 z M 125.1,-242.882 L 125.1,-243.082 L 164.734,-243.082 L 164.734,-242.882 z M 168.734,-242.882 L 168.734,-243.082 L 208.369,-243.082 L 208.369,-242.882 z M 234.186,-240.879 L 234.186,-241.079 L 273.82,-241.079 L 273.82,-240.879 z M 190.551,-240.879 L 190.551,-241.079 L 230.186,-241.079 L 230.186,-240.879 z M 146.917,-240.879 L 146.917,-241.079 L 186.551,-241.079 L 186.551,-240.879 z M 125.1,-238.876 L 125.1,-239.076 L 164.734,-239.076 L 164.734,-238.876 z M 212.369,-238.876 L 212.369,-239.076 L 252.003,-239.076 L 252.003,-238.876 z M 168.734,-238.876 L 168.734,-239.076 L 208.369,-239.076 L 208.369,-238.876 z M 234.186,-236.873 L 234.186,-237.073 L 273.82,-237.073 L 273.82,-236.873 z M 190.551,-236.873 L 190.551,-237.073 L 230.186,-237.073 L 230.186,-236.873 z M 146.917,-236.873 L 146.917,-237.073 L 186.551,-237.073 L 186.551,-236.873 z M 125.1,-234.87 L 125.1,-235.07 L 164.734,-235.07 L 164.734,-234.87 z M 208.369,-234.87 L 168.734,-234.87 L 168.734,-235.07 L 208.369,-235.07 z M 212.369,-234.87 L 212.369,-235.07 L 252.003,-235.07 L 252.003,-234.87 z M 146.917,-232.867 L 146.917,-233.067 L 186.551,-233.067 L 186.551,-232.867 z M 234.186,-232.867 L 234.186,-233.067 L 273.82,-233.067 L 273.82,-232.867 z M 190.551,-232.867 L 190.551,-233.067 L 230.186,-233.067 L 230.186,-232.867 z M 212.369,-230.864 L 212.369,-231.064 L 252.003,-231.064 L 252.003,-230.864 z M 125.1,-230.864 L 125.1,-231.064 L 164.734,-231.064 L 164.734,-230.864 z M 168.734,-230.864 L 168.734,-231.064 L 208.369,-231.064 L 208.369,-230.864 z M 234.186,-228.861 L 234.186,-229.061 L 273.82,-229.061 L 273.82,-228.861 z M 190.551,-228.861 L 190.551,-229.061 L 230.186,-229.061 L 230.186,-228.861 z M 125.1,-226.858 L 125.1,-227.058 L 164.734,-227.058 L 164.734,-226.858 z M 234.186,-224.855 L 234.186,-225.055 L 273.82,-225.055 L 273.82,-224.855 z M 190.551,-224.855 L 190.551,-225.055 L 230.186,-225.055 L 230.186,-224.855 z M 146.917,-224.855 L 146.917,-225.055 L 186.551,-225.055 L 186.551,-224.855 z M 125.1,-222.852 L 125.1,-223.052 L 164.734,-223.052 L 164.734,-222.852 z M 168.734,-222.852 L 168.734,-223.052 L 208.369,-223.052 L 208.369,-222.852 z M 212.369,-222.852 L 212.369,-223.052 L 252.003,-223.052 L 252.003,-222.852 z M 234.186,-220.849 L 234.186,-221.049 L 273.82,-221.049 L 273.82,-220.849 z M 190.551,-220.849 L 190.551,-221.049 L 230.186,-221.049 L 230.186,-220.849 z M 146.917,-220.849 L 146.917,-221.049 L 186.551,-221.049 L 186.551,-220.849 z M 212.369,-218.846 L 212.369,-219.046 L 252.003,-219.046 L 252.003,-218.846 z M 168.734,-218.846 L 168.734,-219.046 L 208.369,-219.046 L 208.369,-218.846 z M 125.1,-218.846 L 125.1,-219.046 L 164.734,-219.046 L 164.734,-218.846 z M 190.551,-216.843 L 190.551,-217.043 L 230.186,-217.043 L 230.186,-216.843 z M 234.186,-216.843 L 234.186,-217.043 L 273.82,-217.043 L 273.82,-216.843 z M 146.917,-216.843 L 146.917,-217.043 L 186.551,-217.043 L 186.551,-216.843 z M 168.734,-214.84 L 168.734,-215.04 L 208.369,-215.04 L 208.369,-214.84 z M 125.1,-214.84 L 125.1,-215.04 L 164.734,-215.04 L 164.734,-214.84 z M 252.003,-214.84 L 212.369,-214.84 L 212.369,-215.04 L 252.003,-215.04 z M 146.917,-212.836 L 146.917,-213.036 L 186.551,-213.036 L 186.551,-212.836 z M 190.551,-212.836 L 190.551,-213.036 L 230.186,-213.036 L 230.186,-212.836 z M 234.186,-212.836 L 234.186,-213.036 L 273.82,-213.036 L 273.82,-212.836 z M 168.734,-210.833 L 168.734,-211.033 L 208.369,-211.033 L 208.369,-210.833 z M 212.369,-210.833 L 212.369,-211.033 L 252.003,-211.033 L 252.003,-210.833 z M 125.1,-210.833 L 125.1,-211.033 L 164.734,-211.033 L 164.734,-210.833 z M 234.186,-208.83 L 234.186,-209.03 L 273.82,-209.03 L 273.82,-208.83 z M 212.369,-206.827 L 212.369,-207.027 L 252.003,-207.027 L 252.003,-206.827 z M 125.1,-206.827 L 125.1,-207.027 L 164.734,-207.027 L 164.734,-206.827 z M 168.734,-206.827 L 168.734,-207.027 L 208.369,-207.027 L 208.369,-206.827 z M 234.186,-204.824 L 234.186,-205.024 L 273.82,-205.024 L 273.82,-204.824 z M 146.917,-204.824 L 146.917,-205.024 L 186.551,-205.024 L 186.551,-204.824 z M 190.551,-204.824 L 190.551,-205.024 L 230.186,-205.024 L 230.186,-204.824 z M 168.734,-202.821 L 168.734,-203.021 L 208.369,-203.021 L 208.369,-202.821 z M 125.1,-202.821 L 125.1,-203.021 L 164.734,-203.021 L 164.734,-202.821 z M 234.186,-200.818 L 234.186,-201.018 L 273.82,-201.018 L 273.82,-200.818 z M 190.551,-200.818 L 190.551,-201.018 L 230.186,-201.018 L 230.186,-200.818 z M 146.917,-200.818 L 146.917,-201.018 L 186.551,-201.018 L 186.551,-200.818 z M 125.1,-198.815 L 125.1,-199.015 L 164.734,-199.015 L 164.734,-198.815 z M 168.734,-198.815 L 168.734,-199.015 L 208.369,-199.015 L 208.369,-198.815 z M 212.369,-198.815 L 212.369,-199.015 L 252.003,-199.015 L 252.003,-198.815 z M 234.186,-196.812 L 234.186,-197.012 L 273.82,-197.012 L 273.82,-196.812 z M 146.917,-196.812 L 146.917,-197.012 L 186.551,-197.012 L 186.551,-196.812 z M 190.551,-196.812 L 190.551,-197.012 L 230.186,-197.012 L 230.186,-196.812 z M 125.1,-194.809 L 125.1,-195.009 L 164.734,-195.009 L 164.734,-194.809 z M 208.369,-194.809 L 168.734,-194.809 L 168.734,-195.009 L 208.369,-195.009 z M 190.551,-192.806 L 190.551,-193.006 L 230.186,-193.006 L 230.186,-192.806 z M 234.186,-192.806 L 234.186,-193.006 L 273.82,-193.006 L 273.82,-192.806 z M 146.917,-192.806 L 146.917,-193.006 L 186.551,-193.006 L 186.551,-192.806 z M 212.369,-190.803 L 212.369,-191.003 L 252.003,-191.003 L 252.003,-190.803 z M 168.734,-190.803 L 168.734,-191.003 L 208.369,-191.003 L 208.369,-190.803 z M 125.1,-190.803 L 125.1,-191.003 L 164.734,-191.003 L 164.734,-190.803 z M 190.551,-188.8 L 190.551,-189 L 230.186,-189 L 230.186,-188.8 z M 146.917,-188.8 L 146.917,-189 L 186.551,-189 L 186.551,-188.8 z M 273.82,-188.8 L 234.186,-188.8 L 234.186,-189 L 273.82,-189 z M 168.734,-186.797 L 168.734,-186.997 L 208.369,-186.997 L 208.369,-186.797 z M 125.1,-186.797 L 125.1,-186.997 L 164.734,-186.997 L 164.734,-186.797 z M 212.369,-186.797 L 212.369,-186.997 L 252.003,-186.997 L 252.003,-186.797 z M 146.917,-184.794 L 146.917,-184.994 L 186.551,-184.994 L 186.551,-184.794 z M 190.551,-184.794 L 190.551,-184.994 L 230.186,-184.994 L 230.186,-184.794 z M 273.82,-184.794 L 234.186,-184.794 L 234.186,-184.994 L 273.82,-184.994 z M 126.28,-172.891 L 126.28,-182.891 L 129.46,-182.891 L 129.46,-172.891 z M 272.64,-172.891 L 269.46,-172.891 L 269.46,-182.891 L 272.64,-182.891 z M 269.46,-152.891 L 269.46,-162.891 L 272.64,-162.891 L 272.64,-152.891 z M 126.28,-152.891 L 126.28,-162.891 L 129.46,-162.891 L 129.46,-152.891 z M 269.46,-132.891 L 269.46,-142.891 L 272.64,-142.891 L 272.64,-132.891 z M 126.28,-132.891 L 126.28,-142.891 L 129.46,-142.891 L 129.46,-132.891 z M 194.46,-84.6611 L 194.46,-87.9411 L 204.46,-87.9411 L 204.46,-84.6611 z M 174.46,-84.6611 L 174.46,-87.9411 L 184.46,-87.9411 L 184.46,-84.6611 z M 214.46,-84.6611 L 214.46,-87.9411 L 224.46,-87.9411 L 224.46,-84.6611 z M 186.551,-358.982 L 146.917,-358.982 L 146.917,-359.182 L 186.551,-359.182 z M 212.369,-364.991 L 212.369,-365.191 L 252.003,-365.191 L 252.003,-364.991 z M 186.551,-330.939 L 146.917,-330.939 L 146.917,-331.139 L 186.551,-331.139 z M 212.369,-344.961 L 212.369,-345.16 L 252.003,-345.16 L 252.003,-344.961 z M 186.551,-326.933 L 146.917,-326.933 L 146.917,-327.133 L 186.551,-327.133 z M 230.186,-322.927 L 190.551,-322.927 L 190.551,-323.127 L 230.186,-323.127 z M 230.186,-252.897 L 190.551,-252.897 L 190.551,-253.097 L 230.186,-253.097 z M 186.551,-322.927 L 146.917,-322.927 L 146.917,-323.127 L 186.551,-323.127 z M 212.369,-312.912 L 212.369,-313.112 L 252.003,-313.112 L 252.003,-312.912 z M 186.551,-228.861 L 146.917,-228.861 L 146.917,-229.061 L 186.551,-229.061 z M 230.186,-208.83 L 190.551,-208.83 L 190.551,-209.03 L 230.186,-209.03 z M 168.734,-226.858 L 168.734,-227.058 L 208.369,-227.058 L 208.369,-226.858 z M 212.369,-202.821 L 212.369,-203.021 L 252.003,-203.021 L 252.003,-202.821 z M 212.369,-194.809 L 212.369,-195.009 L 252.003,-195.009 L 252.003,-194.809 z M 339.18,-84.7111 L 339.18,-87.8911 L 349.18,-87.8911 L 349.18,-84.7111 L 359.18,-84.7111 L 359.18,-87.8911  L 369.18,-87.8911 L 369.18,-84.7111 L 379.18,-84.7111 L 379.18,-87.8911 L 385.054,-88.2761 L 390.827,-89.4244  L 396.401,-91.3165 L 401.68,-93.92 L 406.574,-97.1902 L 411,-101.071 L 414.881,-105.497 L 418.151,-110.391  L 420.755,-115.67 L 422.647,-121.244 L 423.795,-127.017 L 424.18,-132.891 L 427.36,-132.891 L 427.36,-142.891  L 424.18,-142.891 L 424.18,-152.891 L 427.36,-152.891 L 427.36,-162.891 L 424.18,-162.891 L 424.18,-172.891  L 427.36,-172.891 L 427.36,-182.891 L 424.18,-182.891 L 424.18,-186.797 L 406.18,-186.797 L 406.18,-186.997  L 424.18,-186.997 L 424.18,-190.803 L 406.18,-190.803 L 406.18,-191.003 L 424.18,-191.003 L 424.18,-194.809  L 406.18,-194.809 L 406.18,-195.009 L 424.18,-195.009 L 424.18,-198.815 L 406.18,-198.815 L 406.18,-199.015  L 424.18,-199.015 L 424.18,-202.821 L 406.18,-202.821 L 406.18,-203.021 L 424.18,-203.021 L 424.18,-206.827  L 406.18,-206.827 L 406.18,-207.027 L 424.18,-207.027 L 424.18,-210.833 L 406.18,-210.833 L 406.18,-211.033  L 424.18,-211.033 L 424.18,-214.84 L 406.18,-214.84 L 406.18,-215.04 L 424.18,-215.04 L 424.18,-218.846  L 406.18,-218.846 L 406.18,-219.046 L 424.18,-219.046 L 424.18,-222.852 L 406.18,-222.852 L 406.18,-223.052  L 424.18,-223.052 L 424.18,-226.858 L 406.18,-226.858 L 406.18,-227.058 L 424.18,-227.058 L 424.18,-230.864  L 406.18,-230.864 L 406.18,-231.064 L 424.18,-231.064 L 424.18,-234.87 L 406.18,-234.87 L 406.18,-235.07  L 424.18,-235.07 L 424.18,-238.876 L 406.18,-238.876 L 406.18,-239.076 L 424.18,-239.076 L 424.18,-242.882  L 406.18,-242.882 L 406.18,-243.082 L 424.18,-243.082 L 424.18,-246.888 L 406.18,-246.888 L 406.18,-247.088  L 424.18,-247.088 L 424.18,-250.894 L 406.18,-250.894 L 406.18,-251.094 L 424.18,-251.094 L 424.18,-255  L 427.36,-255 L 427.36,-265 L 424.18,-265 L 424.18,-275 L 427.36,-275 L 427.36,-285  L 424.18,-285 L 424.18,-295 L 427.36,-295 L 427.36,-305 L 424.18,-305 L 424.18,-308.906  L 406.18,-308.906 L 406.18,-309.106 L 424.18,-309.106 L 424.18,-312.912 L 406.18,-312.912 L 406.18,-313.112  L 424.18,-313.112 L 424.18,-316.918 L 406.18,-316.918 L 406.18,-317.118 L 424.18,-317.118 L 424.18,-320.924  L 406.18,-320.924 L 406.18,-321.124 L 424.18,-321.124 L 424.18,-324.93 L 406.18,-324.93 L 406.18,-325.13  L 424.18,-325.13 L 424.18,-328.936 L 406.18,-328.936 L 406.18,-329.136 L 424.18,-329.136 L 424.18,-332.942  L 406.18,-332.942 L 406.18,-333.142 L 424.18,-333.142 L 424.18,-336.948 L 406.18,-336.948 L 406.18,-337.148  L 424.18,-337.148 L 424.18,-340.954 L 406.18,-340.954 L 406.18,-341.154 L 424.18,-341.154 L 424.18,-344.961  L 406.18,-344.961 L 406.18,-345.16 L 424.18,-345.16 L 424.18,-348.967 L 406.18,-348.967 L 406.18,-349.167  L 424.18,-349.167 L 424.18,-352.973 L 406.18,-352.973 L 406.18,-353.173 L 424.18,-353.173 L 424.18,-356.979  L 406.18,-356.979 L 406.18,-357.179 L 424.18,-357.179 L 424.18,-360.985 L 406.18,-360.985 L 406.18,-361.185  L 424.18,-361.185 L 424.18,-364.991 L 406.18,-364.991 L 406.18,-365.191 L 424.18,-365.191 L 424.18,-368.997  L 406.18,-368.997 L 406.18,-369.197 L 424.18,-369.197 L 424.18,-373.003 L 406.18,-373.003 L 406.18,-373.203  L 424.18,-373.203 L 424.18,-377.109 L 427.36,-377.109 L 427.36,-387.109 L 424.18,-387.109 L 424.18,-397.109  L 427.36,-397.109 L 427.36,-407.109 L 424.18,-407.109 L 424.18,-417.109 L 427.36,-417.109 L 427.36,-427.109  L 424.18,-427.109 L 423.795,-432.983 L 422.647,-438.756 L 420.755,-444.33 L 418.151,-449.609 L 414.881,-454.503  L 411,-458.929 L 406.574,-462.81 L 401.68,-466.08 L 396.401,-468.683 L 390.827,-470.576 L 385.054,-471.724  L 379.18,-472.109 L 379.18,-475.289 L 369.18,-475.289 L 369.18,-472.109 L 359.18,-472.109 L 359.18,-475.289  L 349.18,-475.289 L 349.18,-472.109 L 339.18,-472.109 L 339.18,-475.289 L 329.18,-475.289 L 329.18,-472.109  L 323.306,-471.724 L 317.533,-470.576 L 311.959,-468.683 L 306.68,-466.08 L 301.786,-462.81 L 297.36,-458.929  L 293.479,-454.503 L 290.209,-449.609 L 287.605,-444.33 L 285.713,-438.756 L 284.565,-432.983 L 284.18,-427.109  L 281,-427.109 L 281,-417.109 L 284.18,-417.109 L 284.18,-407.109 L 281,-407.109 L 281,-397.109  L 284.18,-397.109 L 284.18,-387.109 L 281,-387.109 L 281,-377.109 L 284.18,-377.109 L 284.18,-375.206  L 382.18,-375.206 L 382.18,-375.006 L 346.18,-375.006 L 346.18,-375.206 L 342.18,-375.206 L 342.18,-375.006  L 306.18,-375.006 L 306.18,-375.206 L 302.18,-375.206 L 302.18,-375.006 L 284.18,-375.006 L 284.18,-371.2  L 302.18,-371.2 L 302.18,-371 L 284.18,-371 L 284.18,-367.194 L 302.18,-367.194 L 302.18,-366.994  L 284.18,-366.994 L 284.18,-363.188 L 302.18,-363.188 L 302.18,-362.988 L 284.18,-362.988 L 284.18,-359.182  L 302.18,-359.182 L 302.18,-358.982 L 284.18,-358.982 L 284.18,-355.176 L 302.18,-355.176 L 302.18,-354.976  L 284.18,-354.976 L 284.18,-351.17 L 302.18,-351.17 L 302.18,-350.97 L 284.18,-350.97 L 284.18,-347.164  L 302.18,-347.164 L 302.18,-346.964 L 284.18,-346.964 L 284.18,-343.157 L 302.18,-343.157 L 302.18,-342.957  L 284.18,-342.957 L 284.18,-339.151 L 302.18,-339.151 L 302.18,-338.951 L 284.18,-338.951 L 284.18,-335.145  L 302.18,-335.145 L 302.18,-334.945 L 284.18,-334.945 L 284.18,-331.139 L 302.18,-331.139 L 302.18,-330.939  L 284.18,-330.939 L 284.18,-327.133 L 302.18,-327.133 L 302.18,-326.933 L 284.18,-326.933 L 284.18,-323.127  L 302.18,-323.127 L 302.18,-322.927 L 284.18,-322.927 L 284.18,-319.121 L 302.18,-319.121 L 302.18,-318.921  L 284.18,-318.921 L 284.18,-315.115 L 302.18,-315.115 L 302.18,-314.915 L 284.18,-314.915 L 284.18,-311.109  L 302.18,-311.109 L 302.18,-310.909 L 284.18,-310.909 L 284.18,-307.103 L 302.18,-307.103 L 302.18,-306.903  L 284.18,-306.903 L 284.18,-305 L 281,-305 L 281,-295 L 284.18,-295 L 284.18,-285  L 281,-285 L 281,-275 L 284.18,-275 L 284.18,-265 L 281,-265 L 281,-255  L 284.18,-255 L 284.18,-253.097 L 302.18,-253.097 L 302.18,-252.897 L 284.18,-252.897 L 284.18,-249.091  L 302.18,-249.091 L 302.18,-248.891 L 284.18,-248.891 L 284.18,-245.085 L 302.18,-245.085 L 302.18,-244.885  L 284.18,-244.885 L 284.18,-241.079 L 302.18,-241.079 L 302.18,-240.879 L 284.18,-240.879 L 284.18,-237.073  L 302.18,-237.073 L 302.18,-236.873 L 284.18,-236.873 L 284.18,-233.067 L 302.18,-233.067 L 302.18,-232.867  L 284.18,-232.867 L 284.18,-229.061 L 302.18,-229.061 L 302.18,-228.861 L 284.18,-228.861 L 284.18,-225.055  L 302.18,-225.055 L 302.18,-224.855 L 284.18,-224.855 L 284.18,-221.049 L 302.18,-221.049 L 302.18,-220.849  L 284.18,-220.849 L 284.18,-217.043 L 302.18,-217.043 L 302.18,-216.843 L 284.18,-216.843 L 284.18,-213.036  L 302.18,-213.036 L 302.18,-212.836 L 284.18,-212.836 L 284.18,-209.03 L 302.18,-209.03 L 302.18,-208.83  L 284.18,-208.83 L 284.18,-205.024 L 342.18,-205.024 L 342.18,-204.824 L 306.18,-204.824 L 306.18,-205.024  L 302.18,-205.024 L 302.18,-204.824 L 284.18,-204.824 L 284.18,-201.018 L 302.18,-201.018 L 302.18,-200.818  L 284.18,-200.818 L 284.18,-197.012 L 302.18,-197.012 L 302.18,-196.812 L 284.18,-196.812 L 284.18,-193.006  L 302.18,-193.006 L 302.18,-192.806 L 284.18,-192.806 L 284.18,-189 L 302.18,-189 L 302.18,-188.8  L 284.18,-188.8 L 284.18,-184.994 L 302.18,-184.994 L 302.18,-184.794 L 284.18,-184.794 L 284.18,-182.891  L 281,-182.891 L 281,-172.891 L 284.18,-172.891 L 284.18,-162.891 L 281,-162.891 L 281,-152.891  L 284.18,-152.891 L 284.18,-142.891 L 281,-142.891 L 281,-132.891 L 284.18,-132.891 L 284.565,-127.017  L 285.713,-121.244 L 287.605,-115.67 L 290.209,-110.391 L 293.479,-105.497 L 297.36,-101.071 L 301.786,-97.1902  L 306.68,-93.92 L 311.959,-91.3165 L 317.533,-89.4244 L 323.306,-88.2761 L 329.18,-87.8911 L 329.18,-84.7111  z M 422.18,-375.006 L 386.18,-375.006 L 386.18,-375.206 L 422.18,-375.206 z M 286.18,-373.003 L 286.18,-373.203 L 322.18,-373.203 L 322.18,-373.003 z M 386.18,-371 L 386.18,-371.2 L 422.18,-371.2 L 422.18,-371 z M 306.18,-371 L 306.18,-371.2 L 342.18,-371.2 L 342.18,-371 z M 346.18,-371 L 346.18,-371.2 L 382.18,-371.2 L 382.18,-371 z M 286.18,-368.997 L 286.18,-369.197 L 322.18,-369.197 L 322.18,-368.997 z M 326.18,-368.997 L 326.18,-369.197 L 362.18,-369.197 L 362.18,-368.997 z M 366.18,-368.997 L 366.18,-369.197 L 402.18,-369.197 L 402.18,-368.997 z M 386.18,-366.994 L 386.18,-367.194 L 422.18,-367.194 L 422.18,-366.994 z M 286.18,-364.991 L 286.18,-365.191 L 322.18,-365.191 L 322.18,-364.991 z M 326.18,-364.991 L 326.18,-365.191 L 362.18,-365.191 L 362.18,-364.991 z M 306.18,-362.988 L 306.18,-363.188 L 342.18,-363.188 L 342.18,-362.988 z M 346.18,-362.988 L 346.18,-363.188 L 382.18,-363.188 L 382.18,-362.988 z M 386.18,-362.988 L 386.18,-363.188 L 422.18,-363.188 L 422.18,-362.988 z M 326.18,-360.985 L 326.18,-361.185 L 362.18,-361.185 L 362.18,-360.985 z M 286.18,-360.985 L 286.18,-361.185 L 322.18,-361.185 L 322.18,-360.985 z M 402.18,-360.985 L 366.18,-360.985 L 366.18,-361.185 L 402.18,-361.185 z M 386.18,-358.982 L 386.18,-359.182 L 422.18,-359.182 L 422.18,-358.982 z M 346.18,-358.982 L 346.18,-359.182 L 382.18,-359.182 L 382.18,-358.982 z M 306.18,-358.982 L 306.18,-359.182 L 342.18,-359.182 L 342.18,-358.982 z M 326.18,-356.979 L 326.18,-357.179 L 362.18,-357.179 L 362.18,-356.979 z M 286.18,-356.979 L 286.18,-357.179 L 322.18,-357.179 L 322.18,-356.979 z M 386.18,-354.976 L 386.18,-355.176 L 422.18,-355.176 L 422.18,-354.976 z M 306.18,-354.976 L 306.18,-355.176 L 342.18,-355.176 L 342.18,-354.976 z M 346.18,-354.976 L 346.18,-355.176 L 382.18,-355.176 L 382.18,-354.976 z M 366.18,-352.973 L 366.18,-353.173 L 402.18,-353.173 L 402.18,-352.973 z M 286.18,-352.973 L 286.18,-353.173 L 322.18,-353.173 L 322.18,-352.973 z M 362.18,-352.973 L 326.18,-352.973 L 326.18,-353.173 L 362.18,-353.173 z M 346.18,-350.97 L 346.18,-351.17 L 382.18,-351.17 L 382.18,-350.97 z M 306.18,-350.97 L 306.18,-351.17 L 342.18,-351.17 L 342.18,-350.97 z M 386.18,-350.97 L 386.18,-351.17 L 422.18,-351.17 L 422.18,-350.97 z M 366.18,-348.967 L 366.18,-349.167 L 402.18,-349.167 L 402.18,-348.967 z M 326.18,-348.967 L 326.18,-349.167 L 362.18,-349.167 L 362.18,-348.967 z M 286.18,-348.967 L 286.18,-349.167 L 322.18,-349.167 L 322.18,-348.967 z M 386.18,-346.964 L 386.18,-347.164 L 422.18,-347.164 L 422.18,-346.964 z M 326.18,-344.961 L 326.18,-345.16 L 362.18,-345.16 L 362.18,-344.961 z M 366.18,-344.961 L 366.18,-345.16 L 402.18,-345.16 L 402.18,-344.961 z M 286.18,-344.961 L 286.18,-345.16 L 322.18,-345.16 L 322.18,-344.961 z M 306.18,-342.957 L 306.18,-343.157 L 342.18,-343.157 L 342.18,-342.957 z M 346.18,-342.957 L 346.18,-343.157 L 382.18,-343.157 L 382.18,-342.957 z M 386.18,-342.957 L 386.18,-343.157 L 422.18,-343.157 L 422.18,-342.957 z M 326.18,-340.954 L 326.18,-341.154 L 362.18,-341.154 L 362.18,-340.954 z M 286.18,-340.954 L 286.18,-341.154 L 322.18,-341.154 L 322.18,-340.954 z M 386.18,-338.951 L 386.18,-339.151 L 422.18,-339.151 L 422.18,-338.951 z M 306.18,-338.951 L 306.18,-339.151 L 342.18,-339.151 L 342.18,-338.951 z M 382.18,-338.951 L 346.18,-338.951 L 346.18,-339.151 L 382.18,-339.151 z M 286.18,-336.948 L 286.18,-337.148 L 322.18,-337.148 L 322.18,-336.948 z M 326.18,-336.948 L 326.18,-337.148 L 362.18,-337.148 L 362.18,-336.948 z M 366.18,-336.948 L 366.18,-337.148 L 402.18,-337.148 L 402.18,-336.948 z M 306.18,-334.945 L 306.18,-335.145 L 342.18,-335.145 L 342.18,-334.945 z M 346.18,-334.945 L 346.18,-335.145 L 382.18,-335.145 L 382.18,-334.945 z M 386.18,-334.945 L 386.18,-335.145 L 422.18,-335.145 L 422.18,-334.945 z M 326.18,-332.942 L 326.18,-333.142 L 362.18,-333.142 L 362.18,-332.942 z M 286.18,-332.942 L 286.18,-333.142 L 322.18,-333.142 L 322.18,-332.942 z M 402.18,-332.942 L 366.18,-332.942 L 366.18,-333.142 L 402.18,-333.142 z M 306.18,-330.939 L 306.18,-331.139 L 342.18,-331.139 L 342.18,-330.939 z M 346.18,-330.939 L 346.18,-331.139 L 382.18,-331.139 L 382.18,-330.939 z M 386.18,-330.939 L 386.18,-331.139 L 422.18,-331.139 L 422.18,-330.939 z M 286.18,-328.936 L 286.18,-329.136 L 322.18,-329.136 L 322.18,-328.936 z M 366.18,-328.936 L 366.18,-329.136 L 402.18,-329.136 L 402.18,-328.936 z M 326.18,-328.936 L 326.18,-329.136 L 362.18,-329.136 L 362.18,-328.936 z M 386.18,-326.933 L 386.18,-327.133 L 422.18,-327.133 L 422.18,-326.933 z M 306.18,-326.933 L 306.18,-327.133 L 342.18,-327.133 L 342.18,-326.933 z M 346.18,-326.933 L 346.18,-327.133 L 382.18,-327.133 L 382.18,-326.933 z M 366.18,-324.93 L 366.18,-325.13 L 402.18,-325.13 L 402.18,-324.93 z M 326.18,-324.93 L 326.18,-325.13 L 362.18,-325.13 L 362.18,-324.93 z M 286.18,-324.93 L 286.18,-325.13 L 322.18,-325.13 L 322.18,-324.93 z M 386.18,-322.927 L 386.18,-323.127 L 422.18,-323.127 L 422.18,-322.927 z M 306.18,-322.927 L 306.18,-323.127 L 342.18,-323.127 L 342.18,-322.927 z M 346.18,-322.927 L 346.18,-323.127 L 382.18,-323.127 L 382.18,-322.927 z M 366.18,-320.924 L 366.18,-321.124 L 402.18,-321.124 L 402.18,-320.924 z M 326.18,-320.924 L 326.18,-321.124 L 362.18,-321.124 L 362.18,-320.924 z M 286.18,-320.924 L 286.18,-321.124 L 322.18,-321.124 L 322.18,-320.924 z M 386.18,-318.921 L 386.18,-319.121 L 422.18,-319.121 L 422.18,-318.921 z M 306.18,-318.921 L 306.18,-319.121 L 342.18,-319.121 L 342.18,-318.921 z M 346.18,-318.921 L 346.18,-319.121 L 382.18,-319.121 L 382.18,-318.921 z M 366.18,-316.918 L 366.18,-317.118 L 402.18,-317.118 L 402.18,-316.918 z M 326.18,-316.918 L 326.18,-317.118 L 362.18,-317.118 L 362.18,-316.918 z M 286.18,-316.918 L 286.18,-317.118 L 322.18,-317.118 L 322.18,-316.918 z M 346.18,-314.915 L 346.18,-315.115 L 382.18,-315.115 L 382.18,-314.915 z M 386.18,-314.915 L 386.18,-315.115 L 422.18,-315.115 L 422.18,-314.915 z M 306.18,-314.915 L 306.18,-315.115 L 342.18,-315.115 L 342.18,-314.915 z M 326.18,-312.912 L 326.18,-313.112 L 362.18,-313.112 L 362.18,-312.912 z M 366.18,-312.912 L 366.18,-313.112 L 402.18,-313.112 L 402.18,-312.912 z M 286.18,-312.912 L 286.18,-313.112 L 322.18,-313.112 L 322.18,-312.912 z M 386.18,-310.909 L 386.18,-311.109 L 422.18,-311.109 L 422.18,-310.909 z M 346.18,-310.909 L 346.18,-311.109 L 382.18,-311.109 L 382.18,-310.909 z M 306.18,-310.909 L 306.18,-311.109 L 342.18,-311.109 L 342.18,-310.909 z M 366.18,-308.906 L 366.18,-309.106 L 402.18,-309.106 L 402.18,-308.906 z M 326.18,-308.906 L 326.18,-309.106 L 362.18,-309.106 L 362.18,-308.906 z M 286.18,-308.906 L 286.18,-309.106 L 322.18,-309.106 L 322.18,-308.906 z M 386.18,-306.903 L 386.18,-307.103 L 422.18,-307.103 L 422.18,-306.903 z M 346.18,-306.903 L 346.18,-307.103 L 382.18,-307.103 L 382.18,-306.903 z M 306.18,-306.903 L 306.18,-307.103 L 342.18,-307.103 L 342.18,-306.903 z M 386.18,-252.897 L 386.18,-253.097 L 422.18,-253.097 L 422.18,-252.897 z M 306.18,-252.897 L 306.18,-253.097 L 342.18,-253.097 L 342.18,-252.897 z M 346.18,-252.897 L 346.18,-253.097 L 382.18,-253.097 L 382.18,-252.897 z M 286.18,-250.894 L 286.18,-251.094 L 322.18,-251.094 L 322.18,-250.894 z M 326.18,-250.894 L 326.18,-251.094 L 362.18,-251.094 L 362.18,-250.894 z M 366.18,-250.894 L 366.18,-251.094 L 402.18,-251.094 L 402.18,-250.894 z M 386.18,-248.891 L 386.18,-249.091 L 422.18,-249.091 L 422.18,-248.891 z M 326.18,-246.888 L 326.18,-247.088 L 362.18,-247.088 L 362.18,-246.888 z M 366.18,-246.888 L 366.18,-247.088 L 402.18,-247.088 L 402.18,-246.888 z M 286.18,-246.888 L 286.18,-247.088 L 322.18,-247.088 L 322.18,-246.888 z M 346.18,-244.885 L 346.18,-245.085 L 382.18,-245.085 L 382.18,-244.885 z M 306.18,-244.885 L 306.18,-245.085 L 342.18,-245.085 L 342.18,-244.885 z M 386.18,-244.885 L 386.18,-245.085 L 422.18,-245.085 L 422.18,-244.885 z M 366.18,-242.882 L 366.18,-243.082 L 402.18,-243.082 L 402.18,-242.882 z M 326.18,-242.882 L 326.18,-243.082 L 362.18,-243.082 L 362.18,-242.882 z M 286.18,-242.882 L 286.18,-243.082 L 322.18,-243.082 L 322.18,-242.882 z M 346.18,-240.879 L 346.18,-241.079 L 382.18,-241.079 L 382.18,-240.879 z M 386.18,-240.879 L 386.18,-241.079 L 422.18,-241.079 L 422.18,-240.879 z M 306.18,-240.879 L 306.18,-241.079 L 342.18,-241.079 L 342.18,-240.879 z M 366.18,-238.876 L 366.18,-239.076 L 402.18,-239.076 L 402.18,-238.876 z M 286.18,-238.876 L 286.18,-239.076 L 322.18,-239.076 L 322.18,-238.876 z M 362.18,-238.876 L 326.18,-238.876 L 326.18,-239.076 L 362.18,-239.076 z M 386.18,-236.873 L 386.18,-237.073 L 422.18,-237.073 L 422.18,-236.873 z M 306.18,-236.873 L 306.18,-237.073 L 342.18,-237.073 L 342.18,-236.873 z M 346.18,-236.873 L 346.18,-237.073 L 382.18,-237.073 L 382.18,-236.873 z M 286.18,-234.87 L 286.18,-235.07 L 322.18,-235.07 L 322.18,-234.87 z M 366.18,-234.87 L 366.18,-235.07 L 402.18,-235.07 L 402.18,-234.87 z M 326.18,-234.87 L 326.18,-235.07 L 362.18,-235.07 L 362.18,-234.87 z M 386.18,-232.867 L 386.18,-233.067 L 422.18,-233.067 L 422.18,-232.867 z M 306.18,-232.867 L 306.18,-233.067 L 342.18,-233.067 L 342.18,-232.867 z M 346.18,-232.867 L 346.18,-233.067 L 382.18,-233.067 L 382.18,-232.867 z M 286.18,-230.864 L 286.18,-231.064 L 322.18,-231.064 L 322.18,-230.864 z M 346.18,-228.861 L 346.18,-229.061 L 382.18,-229.061 L 382.18,-228.861 z M 306.18,-228.861 L 306.18,-229.061 L 342.18,-229.061 L 342.18,-228.861 z M 386.18,-228.861 L 386.18,-229.061 L 422.18,-229.061 L 422.18,-228.861 z M 326.18,-226.858 L 326.18,-227.058 L 362.18,-227.058 L 362.18,-226.858 z M 286.18,-226.858 L 286.18,-227.058 L 322.18,-227.058 L 322.18,-226.858 z M 366.18,-226.858 L 366.18,-227.058 L 402.18,-227.058 L 402.18,-226.858 z M 386.18,-224.855 L 386.18,-225.055 L 422.18,-225.055 L 422.18,-224.855 z M 346.18,-224.855 L 346.18,-225.055 L 382.18,-225.055 L 382.18,-224.855 z M 366.18,-222.852 L 366.18,-223.052 L 402.18,-223.052 L 402.18,-222.852 z M 326.18,-222.852 L 326.18,-223.052 L 362.18,-223.052 L 362.18,-222.852 z M 286.18,-222.852 L 286.18,-223.052 L 322.18,-223.052 L 322.18,-222.852 z M 386.18,-220.849 L 386.18,-221.049 L 422.18,-221.049 L 422.18,-220.849 z M 306.18,-220.849 L 306.18,-221.049 L 342.18,-221.049 L 342.18,-220.849 z M 346.18,-220.849 L 346.18,-221.049 L 382.18,-221.049 L 382.18,-220.849 z M 286.18,-218.846 L 286.18,-219.046 L 322.18,-219.046 L 322.18,-218.846 z M 362.18,-218.846 L 326.18,-218.846 L 326.18,-219.046 L 362.18,-219.046 z M 402.18,-218.846 L 366.18,-218.846 L 366.18,-219.046 L 402.18,-219.046 z M 306.18,-216.843 L 306.18,-217.043 L 342.18,-217.043 L 342.18,-216.843 z M 346.18,-216.843 L 346.18,-217.043 L 382.18,-217.043 L 382.18,-216.843 z M 386.18,-216.843 L 386.18,-217.043 L 422.18,-217.043 L 422.18,-216.843 z M 366.18,-214.84 L 366.18,-215.04 L 402.18,-215.04 L 402.18,-214.84 z M 286.18,-214.84 L 286.18,-215.04 L 322.18,-215.04 L 322.18,-214.84 z M 326.18,-214.84 L 326.18,-215.04 L 362.18,-215.04 L 362.18,-214.84 z M 386.18,-212.836 L 386.18,-213.036 L 422.18,-213.036 L 422.18,-212.836 z M 346.18,-212.836 L 346.18,-213.036 L 382.18,-213.036 L 382.18,-212.836 z M 306.18,-212.836 L 306.18,-213.036 L 342.18,-213.036 L 342.18,-212.836 z M 286.18,-210.833 L 286.18,-211.033 L 322.18,-211.033 L 322.18,-210.833 z M 326.18,-210.833 L 326.18,-211.033 L 362.18,-211.033 L 362.18,-210.833 z M 366.18,-210.833 L 366.18,-211.033 L 402.18,-211.033 L 402.18,-210.833 z M 346.18,-208.83 L 346.18,-209.03 L 382.18,-209.03 L 382.18,-208.83 z M 386.18,-208.83 L 386.18,-209.03 L 422.18,-209.03 L 422.18,-208.83 z M 326.18,-206.827 L 326.18,-207.027 L 362.18,-207.027 L 362.18,-206.827 z M 286.18,-206.827 L 286.18,-207.027 L 322.18,-207.027 L 322.18,-206.827 z M 366.18,-206.827 L 366.18,-207.027 L 402.18,-207.027 L 402.18,-206.827 z M 286.18,-202.821 L 286.18,-203.021 L 322.18,-203.021 L 322.18,-202.821 z M 326.18,-202.821 L 326.18,-203.021 L 362.18,-203.021 L 362.18,-202.821 z M 306.18,-200.818 L 306.18,-201.018 L 342.18,-201.018 L 342.18,-200.818 z M 346.18,-200.818 L 346.18,-201.018 L 382.18,-201.018 L 382.18,-200.818 z M 386.18,-200.818 L 386.18,-201.018 L 422.18,-201.018 L 422.18,-200.818 z M 366.18,-198.815 L 366.18,-199.015 L 402.18,-199.015 L 402.18,-198.815 z M 286.18,-198.815 L 286.18,-199.015 L 322.18,-199.015 L 322.18,-198.815 z M 326.18,-198.815 L 326.18,-199.015 L 362.18,-199.015 L 362.18,-198.815 z M 386.18,-196.812 L 386.18,-197.012 L 422.18,-197.012 L 422.18,-196.812 z M 346.18,-196.812 L 346.18,-197.012 L 382.18,-197.012 L 382.18,-196.812 z M 306.18,-196.812 L 306.18,-197.012 L 342.18,-197.012 L 342.18,-196.812 z M 366.18,-194.809 L 366.18,-195.009 L 402.18,-195.009 L 402.18,-194.809 z M 286.18,-194.809 L 286.18,-195.009 L 322.18,-195.009 L 322.18,-194.809 z M 326.18,-194.809 L 326.18,-195.009 L 362.18,-195.009 L 362.18,-194.809 z M 386.18,-192.806 L 386.18,-193.006 L 422.18,-193.006 L 422.18,-192.806 z M 346.18,-192.806 L 346.18,-193.006 L 382.18,-193.006 L 382.18,-192.806 z M 306.18,-192.806 L 306.18,-193.006 L 342.18,-193.006 L 342.18,-192.806 z M 286.18,-190.803 L 286.18,-191.003 L 322.18,-191.003 L 322.18,-190.803 z M 362.18,-190.803 L 326.18,-190.803 L 326.18,-191.003 L 362.18,-191.003 z M 366.18,-190.803 L 366.18,-191.003 L 402.18,-191.003 L 402.18,-190.803 z M 386.18,-188.8 L 386.18,-189 L 422.18,-189 L 422.18,-188.8 z M 346.18,-188.8 L 346.18,-189 L 382.18,-189 L 382.18,-188.8 z M 326.18,-186.797 L 326.18,-186.997 L 362.18,-186.997 L 362.18,-186.797 z M 286.18,-186.797 L 286.18,-186.997 L 322.18,-186.997 L 322.18,-186.797 z M 366.18,-186.797 L 366.18,-186.997 L 402.18,-186.997 L 402.18,-186.797 z M 346.18,-184.794 L 346.18,-184.994 L 382.18,-184.994 L 382.18,-184.794 z M 306.18,-184.794 L 306.18,-184.994 L 342.18,-184.994 L 342.18,-184.794 z M 386.18,-184.794 L 386.18,-184.994 L 422.18,-184.994 L 422.18,-184.794 z M 382.18,-366.994 L 346.18,-366.994 L 346.18,-367.194 L 382.18,-367.194 z M 402.18,-373.003 L 366.18,-373.003 L 366.18,-373.203 L 402.18,-373.203 z M 326.18,-373.003 L 326.18,-373.203 L 362.18,-373.203 L 362.18,-373.003 z M 382.18,-346.964 L 346.18,-346.964 L 346.18,-347.164 L 382.18,-347.164 z M 342.18,-366.994 L 306.18,-366.994 L 306.18,-367.194 L 342.18,-367.194 z M 366.18,-364.991 L 366.18,-365.191 L 402.18,-365.191 L 402.18,-364.991 z M 366.18,-356.979 L 366.18,-357.179 L 402.18,-357.179 L 402.18,-356.979 z M 382.18,-248.891 L 346.18,-248.891 L 346.18,-249.091 L 382.18,-249.091 z M 342.18,-346.964 L 306.18,-346.964 L 306.18,-347.164 L 342.18,-347.164 z M 366.18,-340.954 L 366.18,-341.154 L 402.18,-341.154 L 402.18,-340.954 z M 342.18,-224.855 L 306.18,-224.855 L 306.18,-225.055 L 342.18,-225.055 z M 342.18,-248.891 L 306.18,-248.891 L 306.18,-249.091 L 342.18,-249.091 z M 402.18,-230.864 L 366.18,-230.864 L 366.18,-231.064 L 402.18,-231.064 z M 326.18,-230.864 L 326.18,-231.064 L 362.18,-231.064 L 362.18,-230.864 z M 342.18,-208.83 L 306.18,-208.83 L 306.18,-209.03 L 342.18,-209.03 z M 422.18,-204.824 L 386.18,-204.824 L 386.18,-205.024 L 422.18,-205.024 z M 342.18,-188.8 L 306.18,-188.8 L 306.18,-189 L 342.18,-189 z M 382.18,-204.824 L 346.18,-204.824 L 346.18,-205.024 L 382.18,-205.024 z M 366.18,-202.821 L 366.18,-203.021 L 402.18,-203.021 L 402.18,-202.821 z " />
  <path
     inkscape:connector-curvature="0"
     d=""
     style="fill:none;stroke:#000000;stroke-width:0.28222221"
     id="path4173" />
  <path
     inkscape:connector-curvature="0"
     d=""
     style="fill:none;stroke:#000000;stroke-width:0.28222221"
     id="path4199" />
  <path
     inkscape:connector-curvature="0"
     d=""
     style="fill:none;stroke:#000000;stroke-width:0.28222224"
     id="path4173-3" />
  <path
     inkscape:connector-curvature="0"
     d=""
     style="fill:none;stroke:#000000;stroke-width:0.28222224"
     id="path4199-6" />
  <g
     id="g4387"
     transform="matrix(1.5583609,0,0,1.5626244,-103.87803,64.294641)">
    <g
       transform="translate(21.08051,-3.3728814)"
       id="g4341">
      <path
         inkscape:connector-curvature="0"
         d="m 135.56764,-124.2474 0.37118,0.37372 0,1.12114 -0.37118,1.49486 -0.37117,1.12114 -0.37117,0.74743 -0.74235,1.12115 -0.74235,0.74743 -0.74235,0.37371 -0.37117,0 -0.37117,-0.37371 0,-1.12115 0.37117,-1.86857 0.37117,-1.12114 0.37118,-0.74743 0.74235,-1.12115 0.74234,-0.74743 0.74235,-0.37371 1.11352,-0.37372 1.11352,0 0.74235,0.37372 0.37117,0.74743 0,0.74743 -0.37117,0.74743 -0.37117,0.37371 -0.74235,0.37372 -1.11352,0.37371 m -0.37118,0 0.37118,0 1.11352,0.37372 0.37117,0.37371 0.37118,0.74743 0,1.12114 -0.37118,0.74743 -0.37117,0.37372 -0.74235,0.37371 -1.11352,0 -0.74235,-0.37371 -0.37117,-0.74743"
         style="fill:none;stroke:#000000;stroke-width:0.18085472"
         id="path4167" />
      <path
         inkscape:connector-curvature="0"
         d="m 141.50642,-120.51025 -0.74235,0 -0.74234,0.37371 -0.37118,0.37372 -0.37117,0.74743 0,0.74743 0.37117,0.74743 0.74235,0.37371 0.74235,0 0.74234,-0.37371 0.37118,-0.37372 0.37117,-0.74743 0,-0.74743 -0.37117,-0.74743 -0.74235,-0.37371 -0.37117,0.37371 0,0.74743 0.37117,0.74743 0.74235,0.37372 1.11352,0 0.74235,-0.37372 0.37117,-0.37371"
         style="fill:none;stroke:#000000;stroke-width:0.18085472"
         id="path4169" />
      <path
         inkscape:connector-curvature="0"
         d="m 144.47581,-119.01539 0.74235,-1.12115 0.74235,-0.37371 0.37117,0.37371 0,0.37372 -0.37117,1.49486 -0.37118,1.12114 m 0.37118,-1.12114 0.37117,-0.74743 0.74235,-1.12115 0.74234,-0.37371 0.74235,0 0.37117,0.37371 0,0.74743 -0.37117,1.12115 0,0.74743 0.37117,0.37371 0.37118,0 0.74235,-0.37371 0.37117,-0.37372 0.74235,-1.12114"
         style="fill:none;stroke:#000000;stroke-width:0.18085472"
         id="path4171" />
      <path
         inkscape:connector-curvature="0"
         d="m 157.09572,-117.14682 0.74235,-0.37371 1.11352,-1.12115 1.11352,-1.49486 1.48469,-2.616 1.11352,-2.24229 0,7.84801 -0.37117,-1.12114 -0.74235,-1.12115 -0.74234,-0.74743 -1.11352,-0.74742 -0.74235,0 -0.37118,0.37371 0,0.74743 0.37118,0.74743 0.74235,0.74743 1.11352,0.74743 1.11352,0.37371 1.85587,0"
         style="fill:none;stroke:#000000;stroke-width:0.18085472"
         id="path4175" />
      <path
         inkscape:connector-curvature="0"
         d="m 164.51919,-119.01539 0.74235,-1.12115 0.74235,-0.37371 0.37117,0.37371 0,0.37372 -0.37117,1.49486 -0.37118,1.12114 m 0.37118,-1.12114 0.37117,-0.74743 0.74235,-1.12115 0.74234,-0.37371 0.74235,0 0.37117,0.37371 0,0.74743 -0.37117,1.12115 0,0.74743 0.37117,0.37371 0.37118,0 0.74235,-0.37371 0.37117,-0.37372 0.74235,-1.12114"
         style="fill:none;stroke:#000000;stroke-width:0.18085472"
         id="path4177" />
      <path
         inkscape:connector-curvature="0"
         d="m 171.20031,-119.01539 0.74235,-1.12115 0.74235,-0.37371 0.37117,0.37371 0,0.37372 -0.37117,1.49486 -0.37118,1.12114 m 0.37118,-1.12114 0.37117,-0.74743 0.74235,-1.12115 0.74234,-0.37371 0.74235,0 0.37117,0.37371 0,0.74743 -0.37117,1.12115 0,0.74743 0.37117,0.37371 0.37118,0 0.74235,-0.37371 0.37117,-0.37372 0.74235,-1.12114"
         style="fill:none;stroke:#000000;stroke-width:0.18085472"
         id="path4179" />
      <path
         inkscape:connector-curvature="0"
         d="m 178.99495,-122.37882 0,0.37371 0.37118,0 0,-0.37371 -0.37118,0 m -1.11352,3.36343 0.74235,-1.49486 -0.74235,2.24229 0,0.74743 0.37118,0.37371 0.37117,0 0.74235,-0.37371 0.37117,-0.37372 0.74235,-1.12114"
         style="fill:none;stroke:#000000;stroke-width:0.18085472"
         id="path4181" />
      <path
         inkscape:connector-curvature="0"
         d="m 180.47965,-119.01539 0.74235,-1.49486 -0.37118,1.86857 0,1.12115 0.37118,0.37371 0.37117,0 1.11352,-0.37371 0.74235,-0.74743 0.37117,-1.12115 0,-1.12114 m 0,0 0.37117,1.49486 0.37118,0.37371 0.74235,0 0.74234,-0.37371"
         style="fill:none;stroke:#000000;stroke-width:0.18085472"
         id="path4183" />
      <path
         inkscape:connector-curvature="0"
         d="m 186.41843,-117.89425 0.74235,-0.37371 0.37117,-0.37372 0.37117,-0.74743 0,-0.74743 -0.37117,-0.37371 -0.37117,0 -0.74235,0.37371 -0.37117,0.74743 0,1.12115 0.37117,0.74743 0.74235,0.37371 0.74234,0 0.74235,-0.37371 0.37117,-0.37372 0.74235,-1.12114"
         style="fill:none;stroke:#000000;stroke-width:0.18085472"
         id="path4185" />
      <path
         inkscape:connector-curvature="0"
         d="m 189.75899,-119.01539 0.74235,-1.12115 0.37117,-0.74742 0,0.74742 1.11352,0 0.37118,0.37372 0,0.74743 -0.37118,1.12114 0,0.37372 0.37118,0.37371 0.37117,0 0.74235,-0.37371 0.37117,-0.37372 0.74235,-1.12114"
         style="fill:none;stroke:#000000;stroke-width:0.18085472"
         id="path4187" />
      <path
         inkscape:connector-curvature="0"
         d="m 194.58425,-119.01539 0.74234,-1.12115 0.37118,-0.74742 0,0.74742 0.74234,1.12115 0.37118,0.74743 0,0.74743 -0.74235,0.37371 m -1.48469,-0.37371 0.74234,0.37371 1.4847,0 0.74234,-0.37371 0.37118,-0.37372 0.74235,-1.12114"
         style="fill:none;stroke:#000000;stroke-width:0.18085472"
         id="path4189" />
      <path
         inkscape:connector-curvature="0"
         d="m 202.00772,-119.38911 -0.37117,-0.74743 -0.74235,-0.37371 -0.74235,0 -0.74234,0.37371 -0.37118,0.37372 -0.37117,0.74743 0,0.74743 0.37117,0.74743 0.74235,0.37371 0.74235,0 0.74234,-0.37371 0.37118,-0.74743 0.74234,-2.24229 -0.37117,1.86857 0,1.12115 0.37117,0.37371 0.37118,0 0.74235,-0.37371 0.37117,-0.37372 0.74235,-1.12114"
         style="fill:none;stroke:#000000;stroke-width:0.18085472"
         id="path4191" />
      <path
         inkscape:connector-curvature="0"
         d="m 205.71945,-122.37882 0,0.37371 0.37118,0 0,-0.37371 -0.37118,0 m -1.11352,3.36343 0.74235,-1.49486 -0.74235,2.24229 0,0.74743 0.37118,0.37371 0.37117,0 0.74235,-0.37371 0.37117,-0.37372 0.74235,-1.12114"
         style="fill:none;stroke:#000000;stroke-width:0.18085472"
         id="path4193" />
      <path
         inkscape:connector-curvature="0"
         d="m 207.20415,-119.01539 0.74235,-1.12115 0.37117,-0.74742 0,0.74742 1.11352,0 0.37118,0.37372 0,0.74743 -0.37118,1.12114 0,0.37372 0.37118,0.37371 0.37117,0 0.74235,-0.37371 0.37117,-0.37372 0.74235,-1.12114"
         style="fill:none;stroke:#000000;stroke-width:0.18085472"
         id="path4195" />
      <path
         inkscape:connector-curvature="0"
         d="m 212.40058,-117.89425 0.74235,-0.37371 0.37117,-0.37372 0.37117,-0.74743 0,-0.74743 -0.37117,-0.37371 -0.37117,0 -0.74235,0.37371 -0.37117,0.74743 0,1.12115 0.37117,0.74743 0.74235,0.37371 0.74234,0 0.74235,-0.37371 0.37117,-0.37372 0.74235,-1.12114"
         style="fill:none;stroke:#000000;stroke-width:0.18085472"
         id="path4197" />
    </g>
    <g
       transform="translate(-56.523617,-5.4809323)"
       id="g4380">
      <path
         inkscape:connector-curvature="0"
         d="m 236.1933,-105.01307 0.74235,0 1.48469,-0.37371 1.11352,-0.74743 0.74235,-0.74743 0.37118,-0.74743 0,-1.12115 -0.37118,-0.74743 -0.74235,0 -0.37117,0.37372 -0.37117,0.74743 -0.37118,1.86857 -0.37117,1.86857 -0.37117,1.12115 -0.37118,0.74743 -0.74234,0.74743 -0.74235,0.37371 -0.74235,0 -0.37117,-0.37371 0,-0.74743 0.37117,-0.37372 0.74235,0 0.74235,0.37372 1.11352,0.74743 1.11352,0.37371 0.74234,0 1.11353,-0.37371 0.74234,-0.74743"
         style="fill:none;stroke:#000000;stroke-width:0.18085475"
         id="path4201-2" />
      <path
         inkscape:connector-curvature="0"
         d="m 244.73029,-108.75022 -0.37117,-0.37371 0.37117,-0.37372 0.37117,0.37372 0,0.37371 -0.37117,0.74743 -0.74235,0.74743"
         style="fill:none;stroke:#000000;stroke-width:0.18085475"
         id="path4203-6" />
      <path
         inkscape:connector-curvature="0"
         d="m 245.84381,-101.64964 0.74235,-0.37371 1.11352,-1.12115 1.11352,-1.49486 1.48469,-2.616 1.11352,-2.24229 0,7.84801 -0.37117,-1.12114 -0.74235,-1.12115 -0.74234,-0.74743 -1.11352,-0.74742 -0.74235,0 -0.37118,0.37371 0,0.74743 0.37118,0.74743 0.74235,0.74743 1.11352,0.74743 1.11352,0.37371 1.85587,0"
         style="fill:none;stroke:#000000;stroke-width:0.18085475"
         id="path4205-1" />
      <path
         inkscape:connector-curvature="0"
         d="m 253.26728,-103.51821 0.74235,-1.12115 0.74235,-0.37371 0.37117,0.37371 0,0.37372 -0.37117,1.49486 -0.37118,1.12114 m 0.37118,-1.12114 0.37117,-0.74743 0.74235,-1.12115 0.74235,-0.37371 0.74234,0 0.37118,0.37371 0,0.37372 -0.37118,1.49486 -0.37117,1.12114 m 0.37117,-1.12114 0.37118,-0.74743 0.74234,-1.12115 0.74235,-0.37371 0.74235,0 0.37117,0.37371 0,0.74743 -0.37117,1.12115 0,0.74743 0.37117,0.37371 0.37118,0 0.74234,-0.37371 0.37118,-0.37372 0.74234,-1.12114"
         style="fill:none;stroke:#000000;stroke-width:0.18085475"
         id="path4207-8" />
      <path
         inkscape:connector-curvature="0"
         d="m 262.54663,-103.51821 0.74235,-1.49486 -0.74235,2.24229 0,0.74743 0.37117,0.37371 0.74235,0 0.74235,-0.37371 0.74234,-0.74743 0.74235,-1.12115 m 0.37117,-1.12114 -2.22704,6.726869 -0.37117,0.74743 -0.74235,0.373715 -0.37117,-0.373715 0,-0.74743 0.37117,-1.121144 1.11352,-1.121145 1.11352,-0.74743 0.74235,-0.37372 1.11352,-0.74743 1.11352,-1.12114"
         style="fill:none;stroke:#000000;stroke-width:0.18085475"
         id="path4209-7" />
    </g>
  </g>
</svg>
